<?xml version="1.0" standalone="no"?>
<!DOCTYPE svg PUBLIC "-//W3C//DTD SVG 20010904//EN"
 "http://www.w3.org/TR/2001/REC-SVG-20010904/DTD/svg10.dtd">
<svg version="1.0" xmlns="http://www.w3.org/2000/svg"
 width="509.000000pt" height="339.000000pt" viewBox="0 0 509.000000 339.000000"
 preserveAspectRatio="xMidYMid meet">

<g transform="translate(0.000000,339.000000) scale(0.100000,-0.100000)"
fill="#000000" stroke="none">
<path d="M2556 3381 c-4 -5 -2 -12 3 -15 5 -4 12 -2 15 3 4 5 2 12 -3 15 -5 4
-12 2 -15 -3z"/>
<path d="M3876 3368 c-9 -36 -8 -38 25 -38 28 0 31 3 25 23 -3 12 -6 25 -6 30
0 18 -38 5 -44 -15z"/>
<path d="M4350 3378 c0 -7 -3 -23 -6 -35 -5 -19 -2 -23 15 -23 17 0 21 6 21
35 0 24 -5 35 -15 35 -8 0 -15 -6 -15 -12z"/>
<path d="M1333 3249 c-8 -32 -8 -47 2 -66 12 -23 13 -20 17 41 1 36 1 66 -2
66 -3 0 -11 -18 -17 -41z"/>
<path d="M4647 3238 l-37 -10 39 -28 c47 -34 53 -44 60 -89 4 -19 11 -36 18
-38 14 -5 46 60 48 99 2 39 54 72 102 65 18 -3 35 -1 38 4 8 12 -219 10 -268
-3z"/>
<path d="M105 3200 c19 -8 73 -14 64 -6 -2 2 -22 6 -44 9 -28 5 -34 4 -20 -3z"/>
<path d="M0 3180 c0 -11 2 -20 4 -20 2 0 11 -2 19 -6 8 -3 21 5 31 20 l16 26
-35 0 c-28 0 -35 -4 -35 -20z"/>
<path d="M448 3181 c-12 -4 -14 -11 -9 -20 6 -9 31 -13 77 -14 77 0 99 4 116
21 9 9 4 12 -22 14 -117 5 -147 5 -162 -1z"/>
<path d="M2656 3038 c-10 -40 -7 -408 4 -409 19 -3 25 -5 47 -17 18 -10 24 -9
37 3 8 8 20 15 26 15 19 0 70 43 63 53 -3 6 -2 7 4 4 5 -3 21 7 36 23 28 29
35 50 17 50 -5 0 -10 7 -10 15 0 8 -22 47 -49 87 -26 40 -63 98 -80 129 -28
50 -50 68 -82 69 -4 0 -9 -10 -13 -22z"/>
<path d="M0 3028 c0 -8 5 -19 12 -26 7 -7 8 -15 1 -24 -5 -8 -10 -113 -12
-250 l-1 -238 40 0 40 0 0 246 c0 215 -2 245 -15 234 -8 -6 -19 -9 -25 -5 -16
10 8 48 26 41 11 -4 14 -1 12 12 -4 22 -78 31 -78 10z"/>
<path d="M140 2999 c0 -19 3 -51 6 -71 l7 -38 85 0 c95 0 108 8 19 12 -37 1
-57 7 -57 15 0 18 19 26 33 15 20 -17 207 1 207 19 0 6 9 5 20 -1 16 -9 22 -8
26 4 5 12 11 13 24 6 26 -14 29 -13 40 16 12 30 35 27 34 -5 0 -11 1 -21 3
-21 7 0 30 25 34 37 3 8 9 9 18 3 12 -7 12 -11 2 -24 -8 -9 -9 -16 -4 -16 5 0
15 12 22 26 8 19 16 24 29 19 22 -10 107 -7 152 4 29 7 19 9 -60 12 -52 1
-115 3 -140 4 -25 1 -147 6 -272 10 l-228 8 0 -34z m103 -13 c3 -11 -30 -32
-38 -25 -3 4 -3 14 1 23 7 17 33 19 37 2z m287 -7 c0 -5 -4 -9 -10 -9 -5 0
-10 7 -10 16 0 8 5 12 10 9 6 -3 10 -10 10 -16z"/>
<path d="M893 3003 c9 -2 25 -2 35 0 9 3 1 5 -18 5 -19 0 -27 -2 -17 -5z"/>
<path d="M1087 3004 c-4 -4 -7 -124 -7 -266 l0 -258 123 1 122 1 -85 14 c-47
7 -92 13 -101 14 -9 0 -20 7 -23 16 -8 21 12 226 24 237 4 5 32 9 61 9 60 -1
82 9 118 51 19 22 26 42 26 71 0 36 4 43 33 58 46 23 48 26 21 36 -31 12 -303
25 -312 16z m138 -103 c-16 -33 -54 -63 -67 -55 -12 8 -10 58 4 72 7 7 27 12
45 12 l34 0 -16 -29z"/>
<path d="M2546 3001 c-4 -5 -2 -12 3 -15 5 -4 12 -2 15 3 4 5 2 12 -3 15 -5 4
-12 2 -15 -3z"/>
<path d="M4880 2959 c0 -11 4 -28 10 -38 25 -48 40 -172 40 -341 0 -107 4
-181 11 -190 17 -24 1 479 -17 541 -15 50 -44 69 -44 28z"/>
<path d="M755 2960 c-3 -5 -1 -10 4 -10 6 0 11 5 11 10 0 6 -2 10 -4 10 -3 0
-8 -4 -11 -10z"/>
<path d="M816 2918 c-4 -13 -9 -84 -12 -158 -2 -74 -6 -150 -9 -167 -2 -22 0
-32 8 -30 7 1 12 -5 12 -13 0 -8 4 -20 8 -27 4 -6 0 -19 -9 -27 -14 -15 -7
-16 84 -16 l99 0 6 140 c3 76 3 155 0 173 -5 33 -8 35 -56 41 -59 8 -90 23
-84 39 5 15 -20 67 -32 67 -5 0 -12 -10 -15 -22z"/>
<path d="M1780 2915 c1 -26 2 -28 11 -12 8 14 8 22 0 30 -8 8 -11 3 -11 -18z"/>
<path d="M4752 2908 c-27 -17 -48 -51 -111 -182 -43 -88 -84 -180 -91 -203
-12 -41 -12 -43 20 -83 18 -22 29 -44 26 -48 -4 -3 -39 11 -79 31 -58 30 -83
37 -128 37 -78 0 -147 -25 -155 -56 -4 -14 -9 -23 -12 -20 -2 3 -14 1 -24 -5
-15 -8 -17 -14 -9 -22 15 -15 -29 -38 -46 -24 -10 7 -13 3 -13 -17 0 -16 -6
-26 -15 -27 -8 -1 -21 -2 -27 -3 -11 -1 -35 -36 -64 -93 -3 -6 -11 -10 -19 -7
-17 7 -47 -25 -41 -43 3 -8 7 -22 7 -31 1 -9 4 -3 8 13 3 17 11 29 16 28 16
-3 18 -45 4 -54 -16 -9 -17 -8 44 -43 45 -26 56 -28 162 -28 126 0 133 -3 154
-70 7 -20 23 -43 36 -52 22 -15 24 -14 34 16 6 17 18 39 26 47 8 9 26 30 40
48 32 39 58 48 95 33 61 -25 58 -134 -6 -211 -19 -22 -34 -47 -34 -55 0 -7
-13 -20 -30 -29 -28 -14 -31 -14 -51 6 -23 23 -69 20 -69 -6 0 -27 -21 -61
-51 -80 -18 -13 -33 -34 -40 -57 -7 -28 -17 -40 -34 -44 -39 -10 -74 3 -81 30
-4 18 -15 25 -46 30 -22 4 -43 4 -47 0 -3 -3 12 -22 34 -41 22 -19 39 -39 38
-44 -2 -4 3 -6 10 -3 7 2 23 -7 36 -20 l23 -25 25 30 c14 16 44 39 66 51 l41
20 18 -22 c14 -17 29 -23 59 -23 36 0 47 7 100 59 61 60 106 121 96 130 -3 3
-13 7 -24 8 -25 4 -31 63 -8 72 9 4 21 17 26 30 12 34 29 30 29 -7 0 -41 26
-94 56 -114 18 -12 44 -15 97 -13 64 3 72 5 69 22 -2 10 5 39 16 65 11 25 23
66 26 91 13 107 24 338 17 375 -7 38 -8 35 -19 -45 -6 -47 -14 -107 -17 -135
-14 -132 -19 -160 -27 -166 -5 -3 -10 -15 -13 -28 -6 -32 -45 -60 -82 -61 -26
0 -33 4 -33 19 0 26 21 41 56 38 24 -2 30 2 32 22 4 24 3 24 -63 18 -37 -4
-78 -13 -91 -22 -28 -18 -28 -18 -10 48 45 170 42 226 -20 348 l-35 71 4 116
c3 86 7 117 17 120 28 10 58 50 75 103 9 30 23 59 30 64 7 6 16 27 20 48 4 20
13 41 21 48 17 14 18 49 2 48 -7 0 -28 -10 -46 -21z"/>
<path d="M1776 2865 c-3 -9 0 -15 9 -15 16 0 20 16 6 24 -5 3 -11 -1 -15 -9z"/>
<path d="M2518 2794 c-55 -68 -65 -97 -13 -38 l34 39 1 -67 c0 -37 5 -70 10
-73 17 -10 21 17 18 109 l-3 88 -47 -58z"/>
<path d="M330 2802 c0 -17 28 -22 121 -22 53 0 89 4 89 10 0 6 -36 10 -89 10
-49 0 -96 3 -105 6 -9 3 -16 2 -16 -4z"/>
<path d="M140 2647 l0 -157 30 0 c17 0 30 3 30 8 0 19 -51 296 -55 301 -3 2
-5 -66 -5 -152z"/>
<path d="M4846 2791 c-4 -7 -5 -15 -2 -18 9 -9 19 4 14 18 -4 11 -6 11 -12 0z"/>
<path d="M5066 2754 c-11 -11 -16 -29 -14 -52 5 -55 25 -50 33 8 8 59 4 68
-19 44z"/>
<path d="M2547 2633 c-10 -9 -9 -23 2 -23 5 0 11 7 15 15 5 15 -5 20 -17 8z"/>
<path d="M2830 2620 c13 -9 13 -10 0 -10 -13 0 -13 -1 0 -10 9 -6 10 -10 3
-10 -6 0 -15 5 -18 10 -3 6 -13 10 -21 10 -12 0 -14 -7 -9 -30 8 -35 -7 -40
-28 -10 -11 16 -19 19 -37 12 -14 -5 -42 -5 -66 0 -27 6 -56 5 -82 -2 -49 -13
-154 -82 -176 -115 -9 -14 -22 -24 -29 -22 -7 1 -11 -6 -9 -17 2 -11 -1 -15
-7 -11 -6 3 -15 -5 -21 -20 -14 -36 -13 -45 5 -45 8 0 14 -6 13 -12 -2 -7 5
-12 14 -12 9 1 14 -4 12 -11 -3 -7 13 -19 40 -29 24 -9 47 -25 51 -34 5 -14 4
-15 -6 -4 -7 6 -20 12 -28 12 -14 -1 -13 -2 1 -10 9 -6 15 -19 13 -29 -5 -27
47 -73 91 -80 40 -6 43 -11 69 -84 13 -38 21 -47 35 -42 38 12 30 -61 -17
-135 -30 -48 -106 -130 -121 -130 -7 0 -12 -8 -13 -17 0 -10 -3 -27 -6 -38 -3
-11 -6 -38 -7 -60 -3 -42 -25 -98 -26 -63 0 9 6 19 13 21 9 4 9 6 0 6 -7 1
-17 -8 -23 -19 -6 -11 -9 -20 -6 -20 7 0 -27 -95 -59 -163 -15 -32 -25 -60
-23 -63 4 -3 30 53 82 176 8 19 15 29 15 23 1 -7 -17 -54 -39 -105 -43 -99
-47 -113 -28 -102 6 4 8 3 4 -4 -3 -6 -14 -11 -24 -11 -9 0 -26 -2 -37 -5 -11
-2 -21 -5 -23 -5 -2 -1 17 -24 42 -53 l46 -52 117 -18 c65 -9 123 -17 128 -17
6 -1 23 22 39 50 16 28 31 47 35 42 3 -5 31 -7 62 -4 50 5 56 8 54 28 -1 13
-5 26 -10 30 -4 5 -5 0 -2 -10 5 -13 3 -16 -6 -10 -19 11 -50 10 -75 -5 -22
-12 -21 -10 9 50 17 35 33 65 35 67 2 2 13 -13 25 -33 11 -20 25 -36 31 -36 5
0 6 5 3 10 -4 6 -8 71 -10 145 -2 73 -6 143 -10 154 -3 10 -1 22 5 26 6 4 10
-8 10 -32 0 -21 5 -45 11 -53 9 -13 10 -13 8 0 -3 33 1 113 7 108 3 -3 5 -25
6 -48 0 -29 3 -38 10 -29 6 10 8 5 6 -16 -1 -16 -6 -35 -10 -41 -11 -16 -23
-158 -12 -152 5 3 10 -24 10 -61 1 -38 8 -81 18 -101 16 -35 16 -35 11 -5 -14
88 -17 186 -6 212 6 15 12 53 14 85 1 31 5 51 9 45 3 -5 9 1 12 14 9 42 -4
-84 -15 -141 -15 -82 -11 -174 11 -228 10 -26 19 -39 19 -29 1 9 6 17 12 17 5
0 7 -4 4 -10 -11 -18 -31 -189 -20 -179 6 6 13 45 15 84 2 28 3 27 11 -10 4
-22 6 -62 3 -90 -4 -37 -3 -46 5 -35 9 13 11 12 11 -3 0 -10 5 -15 10 -12 6 4
10 -9 10 -32 l-1 -38 -16 35 -16 35 -7 -35 c-4 -19 -8 -26 -9 -14 -1 20 -22
90 -43 147 -8 21 -14 25 -24 16 -11 -9 -11 -5 -4 22 5 18 7 35 5 38 -3 2 -5
-1 -5 -7 0 -7 -4 -12 -10 -12 -6 0 -6 9 0 25 10 26 2 33 -17 14 -8 -8 -13 -8
-17 0 -4 6 -24 11 -44 11 l-37 0 3 -57 c2 -32 9 -62 15 -68 19 -16 65 -90 69
-110 2 -10 -3 -20 -10 -22 -7 -3 -11 -1 -10 4 2 4 -7 25 -19 45 -19 33 -37 44
-65 39 -5 0 -8 3 -8 9 0 13 -47 11 -86 -3 -18 -7 -49 -27 -69 -44 -21 -18 -44
-33 -52 -33 -7 0 -13 -6 -13 -14 0 -7 -16 -29 -35 -47 l-34 -34 51 -1 c46 -1
67 -13 68 -37 0 -4 -19 -6 -42 -5 -39 3 -43 1 -40 -19 3 -18 -2 -23 -17 -23
-12 0 -21 5 -21 10 0 6 -4 10 -10 10 -5 0 -10 -7 -10 -15 0 -8 3 -15 8 -15 4
0 15 -19 25 -43 9 -23 27 -53 38 -67 l21 -25 -6 41 c-7 52 3 62 78 74 67 11
86 6 86 -24 1 -11 7 -39 15 -61 12 -35 12 -38 -1 -21 -12 17 -14 17 -14 4 0
-21 -10 -27 -61 -36 -38 -6 -44 -11 -56 -46 -12 -36 -11 -40 6 -52 23 -17 33
-60 16 -74 -21 -17 -29 -144 -11 -178 13 -25 13 -32 1 -48 -17 -23 -18 -35 -6
-67 14 -36 54 -26 70 19 l12 34 84 0 c66 0 86 -3 93 -16 16 -28 55 -13 75 28
17 35 17 40 3 70 -14 27 -14 34 -2 47 13 15 15 25 17 69 1 43 10 62 29 62 11
0 30 11 42 25 12 14 28 25 37 25 8 0 22 7 31 15 10 9 54 18 125 24 106 9 160
5 241 -20 17 -5 37 -9 45 -9 8 0 19 -8 26 -18 8 -14 21 -18 54 -15 24 2 50 5
57 8 7 3 10 0 7 -5 -3 -6 -2 -10 4 -10 5 0 11 5 13 12 6 17 118 24 129 7 8
-12 11 -12 19 1 6 10 29 16 72 17 60 1 64 3 84 35 12 18 38 78 58 133 20 55
58 145 85 200 55 112 100 250 107 328 7 88 16 137 25 137 16 0 14 -77 -2 -96
-6 -7 -9 -27 -8 -45 1 -19 -1 -48 -5 -66 -7 -29 -4 -33 23 -47 16 -9 34 -16
40 -16 5 0 21 -4 34 -9 l25 -10 -35 -93 c-36 -98 -114 -259 -212 -443 -57
-105 -81 -135 -81 -101 0 41 -44 -2 -55 -53 -6 -29 -5 -33 10 -28 9 4 26 2 37
-4 21 -11 21 -11 -3 -31 -17 -14 -19 -18 -6 -14 14 4 18 1 15 -11 -5 -25 -25
-27 -33 -3 -13 42 -85 63 -85 24 0 -7 -9 -18 -21 -24 -11 -7 -18 -18 -15 -25
6 -17 -47 -70 -83 -83 -73 -28 -68 -25 -47 -30 11 -2 74 -1 140 3 l121 7 28
71 c15 40 27 80 27 89 0 9 10 24 23 33 12 8 21 19 19 23 -3 8 97 163 113 174
5 4 36 13 67 19 48 10 58 16 68 40 10 23 9 34 -5 61 -10 18 -22 41 -26 50 -8
16 25 117 54 162 33 52 58 135 55 182 -3 44 -5 49 -27 49 -13 0 -29 9 -35 20
-6 11 -26 43 -44 72 -36 57 -55 128 -55 215 -1 39 -5 59 -15 63 -7 2 -10 10
-6 16 5 8 1 8 -14 0 -22 -12 -41 2 -21 15 8 5 9 3 4 -7 -6 -11 -5 -12 5 -2 20
18 6 27 -20 13 -15 -8 -20 -8 -16 -1 4 6 2 11 -5 11 -8 0 -6 6 5 18 15 18 15
21 -4 44 -10 14 -16 29 -12 33 4 5 -1 5 -10 2 -10 -4 -17 -2 -15 4 1 6 -18 19
-42 28 -30 12 -40 20 -30 24 8 4 -2 4 -21 2 l-35 -5 30 13 30 14 -42 13 c-23
7 -40 17 -37 22 3 5 -7 6 -23 3 l-28 -6 30 14 30 14 -33 7 c-19 5 -29 12 -26
18 4 7 2 8 -5 4 -14 -9 -53 3 -46 14 3 5 0 12 -6 16 -8 4 -9 3 -5 -4 4 -7 2
-12 -4 -12 -6 0 -8 -5 -4 -12 6 -9 3 -9 -9 0 -9 8 -16 17 -15 20 2 21 -6 32
-39 58 -20 15 -33 22 -29 16 4 -7 3 -12 -3 -12 -5 0 -8 -9 -6 -20 2 -11 -2
-23 -8 -26 -7 -4 -9 -4 -5 1 4 4 3 14 -3 21 -7 8 -7 14 1 19 5 3 10 13 10 22
0 15 -2 14 -18 0 -15 -14 -19 -15 -19 -2 0 8 5 11 10 8 5 -3 7 0 5 8 -3 9 -18
14 -41 13 -33 -1 -42 6 -38 28 0 5 -3 7 -8 5 -5 -1 -10 3 -11 8 0 6 -10 19
-21 31 -10 11 -16 25 -12 29 5 5 0 3 -10 -4 -17 -13 -16 -16 8 -41 14 -15 25
-32 23 -38 -2 -5 0 -9 4 -9 3 1 19 -9 34 -23 15 -14 24 -20 20 -13 -3 6 -1 15
5 18 7 5 10 1 7 -10 -5 -28 -34 -26 -63 5 -15 16 -27 31 -26 34 1 3 -2 6 -6 7
-5 1 -26 10 -48 22 -22 11 -41 19 -43 18 -2 -2 -7 0 -10 4 -4 4 10 6 30 3 20
-2 34 0 31 5 -5 9 -95 4 -138 -6 -11 -3 -24 -6 -29 -6 -6 -1 -5 -6 1 -12 8 -8
17 -8 31 0 21 11 60 16 50 6 -3 -3 -15 -7 -27 -10 -11 -2 -26 -7 -31 -10 -13
-8 -37 10 -52 39 -10 19 -10 20 6 7 13 -11 22 -12 42 -2 14 6 30 9 35 6 5 -4
9 -1 9 4 0 6 11 11 25 11 14 0 25 5 25 10 0 12 -37 5 -89 -16 -40 -16 -41 -17
-41 -5 0 5 8 11 18 14 52 17 95 36 80 37 -19 0 -90 -24 -123 -42 -17 -10 -18
-9 -7 4 7 9 34 24 59 33 26 10 43 20 36 22 -6 2 -34 -7 -63 -21 -34 -16 -47
-20 -39 -10 11 14 10 15 -6 13 -11 -2 -26 0 -32 4 -7 4 -22 3 -33 -3 -11 -6
-20 -7 -20 -2 0 5 -16 27 -35 49 -24 29 -39 60 -50 104 -16 70 -58 182 -66
175 -3 -3 -5 3 -5 12 -1 22 -12 77 -25 125 -12 45 -91 133 -110 121 -8 -4 -10
-3 -5 4 4 7 4 12 -1 13 -4 0 -28 3 -53 5 -32 3 -41 2 -30 -6z m2 -112 c-21
-21 -32 -3 -15 22 16 22 18 23 21 6 2 -10 -1 -23 -6 -28z m-32 -327 c0 -5 -5
-11 -11 -13 -9 -3 -9 -9 0 -25 17 -33 13 -61 -9 -73 -15 -8 -19 -17 -15 -31 6
-17 3 -20 -16 -17 -27 3 -40 38 -15 38 9 0 16 4 16 9 0 5 9 11 20 14 31 8 24
36 -12 52 -19 8 -26 14 -15 15 9 0 17 5 17 11 0 5 -4 7 -10 4 -6 -3 -7 1 -4 9
6 17 54 22 54 7z m-10 -131 c0 -5 -5 -10 -11 -10 -5 0 -7 5 -4 10 3 6 8 10 11
10 2 0 4 -4 4 -10z m785 -110 c10 -11 16 -20 13 -20 -3 0 -13 9 -23 20 -10 11
-16 20 -13 20 3 0 13 -9 23 -20z m-85 -34 c0 -2 -9 -6 -20 -9 -11 -3 -18 -1
-14 4 5 9 34 13 34 5z m67 -8 c7 -1 10 -5 7 -10 -3 -5 2 -19 13 -30 12 -15 3
-11 -29 11 -52 35 -61 47 -25 36 12 -3 27 -7 34 -7z m13 -63 c19 -19 28 -35
22 -35 -9 0 -10 -6 -4 -17 4 -10 7 -27 6 -38 -1 -11 -3 -37 -5 -57 -3 -38 -22
-51 -32 -24 -4 9 -1 13 6 10 16 -6 17 37 2 52 -6 6 -24 16 -40 22 -17 6 -24
11 -17 11 7 1 29 -6 49 -14 l36 -15 -26 24 c-14 13 -32 26 -39 29 -9 4 -9 6 2
6 9 1 26 -7 40 -16 l24 -17 -20 26 c-10 14 -21 25 -24 23 -3 -2 -11 4 -19 12
-12 13 -11 14 10 9 23 -7 23 -6 -4 18 -16 15 -22 26 -15 26 8 0 29 -16 48 -35z
m-766 -43 c3 -5 -1 -9 -9 -9 -8 0 -12 4 -9 9 3 4 7 8 9 8 2 0 6 -4 9 -8z
m-234 -42 c0 -5 -2 -10 -4 -10 -3 0 -8 5 -11 10 -3 6 -1 10 4 10 6 0 11 -4 11
-10z m1241 -17 c13 -16 12 -17 -3 -4 -17 13 -22 21 -14 21 2 0 10 -8 17 -17z
m64 -11 c-3 -3 -11 0 -18 7 -9 10 -8 11 6 5 10 -3 15 -9 12 -12z m-338 -8 c-3
-3 -12 -4 -19 -1 -8 3 -5 6 6 6 11 1 17 -2 13 -5z m380 0 c-3 -3 -12 -4 -19
-1 -8 3 -5 6 6 6 11 1 17 -2 13 -5z m-347 -8 c0 -3 -4 -8 -10 -11 -5 -3 -10
-1 -10 4 0 6 5 11 10 11 6 0 10 -2 10 -4z m12 -91 c-1 -11 -3 -30 -4 -42 0
-23 -9 -29 -21 -17 -3 4 -2 15 4 25 8 15 6 19 -8 20 -17 1 -17 2 0 6 20 5 22
19 5 27 -7 3 -4 4 7 3 13 -2 19 -9 17 -22z m-2 -85 c0 -5 -6 -10 -14 -10 -8 0
-18 5 -21 10 -3 6 3 10 14 10 12 0 21 -4 21 -10z m-6 -42 c-9 -31 -10 -31 -31
-19 -17 10 -17 10 2 11 11 1 14 4 8 7 -20 8 -15 23 8 23 16 0 19 -4 13 -22z
m-8 -65 c-3 -3 -13 -2 -23 2 -17 7 -17 8 2 15 19 7 34 -5 21 -17z m-569 -445
c-3 -8 -6 -5 -6 6 -1 11 2 17 5 13 3 -3 4 -12 1 -19z m-75 -155 c21 -18 24
-69 7 -107 -10 -20 -17 -24 -40 -19 -17 3 -39 -2 -58 -13 -34 -20 -51 -12 -33
16 7 12 8 21 2 25 -16 10 -11 77 7 97 21 23 89 24 115 1z m22 -231 c-1 -6 -2
-16 -2 -22 -1 -5 -24 -10 -51 -10 -31 0 -53 -5 -61 -15 -15 -18 -33 -20 -27
-2 2 6 0 20 -5 30 -5 9 -7 21 -4 25 9 14 151 8 150 -6z m-160 -78 c9 -3 16
-14 16 -24 0 -11 5 -22 11 -26 8 -4 10 -27 6 -65 -3 -33 -1 -59 4 -59 12 0 12
-27 0 -32 -6 -2 -6 -21 -2 -46 8 -42 -3 -68 -19 -42 -5 9 -9 9 -14 1 -4 -6
-12 -11 -17 -11 -6 0 -7 5 -4 10 3 6 0 10 -9 10 -8 0 -16 6 -19 13 -3 7 -7 5
-12 -8 -4 -11 -10 -29 -15 -40 -8 -18 -9 -17 -9 8 -1 33 -21 37 -21 3 0 -24
-34 -43 -46 -25 -3 5 2 9 10 9 26 0 24 107 -2 126 -14 10 -15 15 -3 37 7 14
11 37 7 53 -7 32 0 47 27 57 9 4 17 10 16 14 -6 34 2 43 40 43 22 0 46 -3 55
-6z m1102 -311 c-10 -10 -19 5 -10 18 6 11 8 11 12 0 2 -7 1 -15 -2 -18z"/>
<path d="M3565 1810 c3 -5 8 -10 11 -10 2 0 4 5 4 10 0 6 -5 10 -11 10 -5 0
-7 -4 -4 -10z"/>
<path d="M2728 363 c7 -3 16 -2 19 1 4 3 -2 6 -13 5 -11 0 -14 -3 -6 -6z"/>
<path d="M3676 2595 c-3 -9 0 -26 6 -38 13 -22 13 -21 16 7 4 33 -12 56 -22
31z"/>
<path d="M726 2591 c-12 -19 -19 -101 -9 -101 23 0 39 44 34 98 -1 14 -17 16
-25 3z"/>
<path d="M4849 2490 c0 -52 -3 -149 -7 -215 -9 -190 -8 -218 6 -222 9 -4 12
34 13 164 0 92 2 205 5 250 4 49 2 89 -5 100 -8 14 -11 -5 -12 -77z"/>
<path d="M1455 2451 c-11 -5 -23 -7 -27 -4 -5 2 -8 -1 -8 -8 0 -7 -3 -10 -6
-6 -4 3 -13 -1 -21 -9 -8 -8 -19 -12 -24 -9 -5 4 -9 1 -9 -5 0 -6 -5 -8 -10
-5 -6 3 -14 -4 -19 -17 -6 -13 -10 -17 -10 -9 -2 27 -14 2 -17 -34 -2 -22 1
-33 7 -29 7 4 8 -15 5 -55 -3 -34 -1 -63 4 -66 6 -3 10 -2 10 3 0 6 40 8 97 6
60 -2 118 2 152 10 31 8 70 13 86 12 24 -1 31 3 33 23 2 13 -1 28 -7 34 -8 8
-11 5 -11 -11 0 -25 0 -25 -34 -12 -22 8 -25 14 -20 40 6 26 4 29 -11 24 -14
-6 -16 -1 -15 27 3 50 1 59 -10 59 -6 0 -29 9 -52 20 -36 17 -42 18 -55 4 -19
-19 -30 -10 -13 11 14 17 13 17 -15 6z m125 -71 c0 -5 -2 -10 -4 -10 -3 0 -8
5 -11 10 -3 6 -1 10 4 10 6 0 11 -4 11 -10z m-240 -110 c-6 -11 -13 -20 -16
-20 -2 0 0 9 6 20 6 11 13 20 16 20 2 0 0 -9 -6 -20z"/>
<path d="M2171 2422 c-14 -26 -7 -42 10 -25 6 6 9 19 7 29 -3 17 -5 17 -17 -4z"/>
<path d="M12 2400 c-9 -14 -12 -90 -12 -265 l0 -246 191 1 c217 2 209 -2 190
86 -12 51 -11 57 13 100 29 51 31 58 16 49 -15 -9 -12 9 6 31 8 10 13 13 9 7
-3 -7 -2 -13 3 -13 6 0 13 7 16 16 9 23 8 26 -6 18 -8 -5 -9 -2 -5 10 4 10 7
21 7 26 0 5 6 10 14 12 21 5 96 109 96 134 0 28 -10 36 -27 22 -10 -8 -17 -8
-25 0 -8 8 -17 8 -31 0 -16 -8 -23 -7 -34 8 -7 10 -13 13 -13 6 0 -7 -19 -11
-50 -10 -27 0 -50 4 -50 9 0 5 -9 4 -21 -3 -18 -11 -23 -10 -32 4 -10 15 -12
15 -23 0 -11 -14 -16 -15 -33 -4 -13 7 -21 8 -21 2 0 -16 -28 -12 -38 6 -8 15
-10 15 -15 0 -8 -20 -36 -21 -43 -1 -6 14 -8 13 -19 -2 -12 -17 -14 -17 -32
-1 -18 16 -19 16 -31 -2z m364 -115 c-3 -22 -12 -27 -35 -20 -32 10 -26 35 8
35 20 0 29 -5 27 -15z m41 -11 c-3 -3 -12 -4 -19 -1 -8 3 -5 6 6 6 11 1 17 -2
13 -5z m57 -9 c-4 -8 -10 -12 -15 -9 -14 8 -10 24 6 24 9 0 12 -6 9 -15z"/>
<path d="M5040 2400 c0 -9 10 -16 25 -16 18 -1 25 3 25 16 0 13 -7 17 -25 16
-15 0 -25 -7 -25 -16z"/>
<path d="M743 2398 c2 -7 15 -13 28 -13 13 0 26 -3 29 -6 6 -8 78 -49 86 -49
3 0 2 6 -1 13 -4 6 9 -5 29 -25 42 -43 46 -45 46 -19 0 11 5 23 10 26 6 3 10
1 10 -4 0 -6 5 -11 11 -11 6 0 9 9 6 20 -3 11 -1 18 4 14 5 -3 15 -2 22 3 6 4
18 9 25 10 6 2 18 5 25 7 6 2 31 7 55 11 23 4 44 11 47 15 2 4 -71 10 -162 13
-242 10 -275 9 -270 -5z"/>
<path d="M688 2370 c-10 -9 -18 -20 -18 -25 0 -4 8 -14 18 -21 14 -11 15 -15
3 -23 -25 -16 -43 -1 -36 30 4 18 2 29 -4 29 -21 0 -60 -75 -67 -130 -5 -40
-9 -49 -15 -35 -4 11 -8 14 -8 8 -1 -7 -5 -13 -10 -13 -6 0 -5 14 0 36 17 61
3 62 -19 1 -26 -68 -28 -88 -7 -61 14 18 15 17 9 -11 -4 -16 -16 -39 -27 -50
-11 -11 -17 -15 -13 -8 3 6 2 14 -3 17 -12 8 -61 -132 -60 -169 l1 -30 8 30
c6 22 8 11 9 -45 l1 -75 42 103 c45 113 64 134 23 27 -29 -78 -30 -88 -8 -60
9 12 14 14 11 5 -3 -9 -11 -40 -17 -70 -7 -30 -21 -66 -32 -80 l-20 -25 3 37
c5 44 -7 41 -18 -5 -4 -17 -9 -35 -10 -39 -1 -5 -2 -21 -3 -38 0 -16 -6 -30
-12 -30 -8 0 -10 13 -6 38 5 25 3 32 -3 22 -15 -24 -12 -68 10 -116 22 -48 23
-48 50 -34 12 6 16 17 13 31 -4 15 -8 17 -14 8 -11 -18 -15 -11 -23 34 -5 28
-4 37 7 37 8 0 26 26 41 58 14 31 23 46 20 32 -6 -23 -5 -23 21 8 15 18 29 31
31 29 2 -2 -3 -25 -12 -51 -9 -26 -13 -50 -10 -53 3 -4 6 -1 6 5 0 7 5 12 10
12 6 0 10 -12 10 -27 0 -14 3 -23 7 -20 7 8 33 -11 33 -24 0 -5 -9 -9 -20 -9
-13 0 -18 -5 -13 -16 6 -17 51 -12 68 9 6 7 36 12 73 12 63 0 64 0 78 -35 9
-21 18 -30 22 -23 4 6 21 13 37 15 l30 3 -22 20 c-13 11 -32 28 -43 38 -12 10
-25 15 -30 12 -6 -4 -10 -2 -10 3 0 6 -7 9 -16 8 -9 0 -19 5 -22 13 -3 10 0
12 11 8 14 -5 15 -3 4 13 -14 23 -29 27 -21 5 9 -21 -28 -20 -56 3 -28 23 -20
58 22 91 28 23 32 23 43 8 15 -21 25 -22 25 -3 0 28 34 72 89 114 47 36 56 40
62 25 4 -12 8 -13 13 -4 6 9 11 8 22 -6 13 -17 15 -17 34 5 11 13 25 42 31 63
11 35 29 54 29 29 0 -5 4 -10 10 -10 5 0 1 13 -8 29 -9 16 -19 25 -23 20 -3
-6 -9 3 -12 20 -7 32 -27 38 -39 11 -5 -11 -7 -9 -7 8 -1 12 -5 22 -11 22 -5
0 -7 13 -3 30 3 17 1 30 -4 30 -5 0 -19 9 -30 19 -11 11 -37 23 -58 27 -36 6
-37 6 -30 -17 7 -21 6 -22 -9 -10 -9 7 -16 19 -16 26 0 6 -12 18 -26 25 -22
12 -27 12 -34 0 -7 -11 -12 -12 -21 -3 -18 18 -1 34 29 27 26 -5 25 -5 -4 11
-29 15 -31 19 -24 49 8 37 -4 43 -32 16z m189 -222 c-2 -7 -12 -12 -21 -12 -9
1 -16 -3 -16 -9 0 -6 -3 -7 -6 -4 -10 9 16 37 33 37 8 0 13 -6 10 -12z m-179
-58 c15 -1 15 -2 -2 -15 -14 -11 -22 -11 -36 -3 -14 9 -22 9 -34 -1 -18 -15
-19 -9 -10 38 l6 31 30 -25 c16 -14 37 -25 46 -25z m-18 -200 c0 -5 -8 -10
-17 -10 -10 0 -27 -15 -37 -33 -16 -26 -20 -29 -24 -14 -4 21 14 46 43 57 28
12 35 12 35 0z m-42 -127 c2 -21 -1 -23 -12 -14 -8 6 -16 22 -18 35 -4 20 -2
23 11 14 9 -6 18 -22 19 -35z m6 -69 c9 -23 7 -36 -3 -30 -12 8 -21 46 -11 46
4 0 11 -7 14 -16z"/>
<path d="M3662 2207 c-14 -98 -16 -177 -3 -177 12 0 31 112 31 181 0 88 -15
86 -28 -4z"/>
<path d="M972 2263 c-10 -4 -10 -8 -1 -19 15 -18 25 -18 32 0 4 11 1 13 -10 9
-11 -4 -14 -2 -9 5 8 13 7 13 -12 5z"/>
<path d="M3451 2270 c-1 -3 -4 -27 -6 -55 -3 -46 -3 -48 6 -16 8 26 8 91 0 71z"/>
<path d="M2270 2150 c0 -5 5 -10 11 -10 5 0 7 5 4 10 -3 6 -8 10 -11 10 -2 0
-4 -4 -4 -10z"/>
<path d="M3315 2141 c6 -11 4 -13 -10 -7 -18 6 -18 6 1 -16 l19 -22 -30 18
-30 19 18 -20 c19 -21 74 -28 56 -7 -5 6 -7 13 -4 16 3 3 -2 11 -12 19 -14 12
-16 12 -8 0z"/>
<path d="M3340 2146 c0 -2 8 -10 18 -17 15 -13 16 -12 3 4 -13 16 -21 21 -21
13z"/>
<path d="M2333 2133 c-31 -12 -7 -18 68 -18 73 0 78 1 53 12 -29 12 -98 16
-121 6z"/>
<path d="M3449 2120 c13 -11 28 -20 33 -20 6 0 -1 9 -15 20 -33 26 -49 26 -18
0z"/>
<path d="M437 2096 c-10 -14 -13 -26 -8 -26 13 0 33 28 29 41 -2 6 -12 0 -21
-15z"/>
<path d="M1617 2097 c-24 -10 -28 -16 -25 -47 2 -28 8 -36 26 -38 15 -2 32 4
43 17 18 19 18 20 -4 23 l-22 3 23 23 c12 12 22 24 22 27 0 8 -33 4 -63 -8z"/>
<path d="M3266 2094 c18 -15 18 -15 -11 -9 l-30 6 24 -17 c19 -14 25 -14 32
-3 6 11 9 10 15 -4 3 -9 11 -14 17 -10 6 3 7 1 3 -6 -6 -9 -11 -9 -21 -1 -9 7
-16 6 -24 -4 -8 -9 -8 -16 -2 -20 5 -4 13 -2 16 4 5 8 11 8 19 1 9 -7 30 -3
72 15 48 20 52 24 24 20 l-35 -6 30 15 c24 11 26 14 10 15 -17 0 -18 2 -5 11
10 7 11 9 2 7 -8 -2 -13 -8 -13 -13 0 -17 -43 -35 -56 -23 -7 6 -13 7 -13 4 0
-4 -13 2 -29 13 -34 24 -54 28 -25 5z m84 -49 c-14 -8 -29 -14 -35 -14 -5 0 1
6 15 14 14 8 30 14 35 14 6 0 -1 -6 -15 -14z"/>
<path d="M2288 2093 c6 -2 18 -2 25 0 6 3 1 5 -13 5 -14 0 -19 -2 -12 -5z"/>
<path d="M1430 2070 c-11 -7 -7 -10 18 -10 26 0 33 -4 30 -17 -2 -9 -14 -20
-28 -24 l-25 -6 28 -13 c36 -18 62 -3 62 34 -1 17 5 26 15 27 10 0 9 3 -5 9
-27 12 -77 12 -95 0z"/>
<path d="M2411 2066 c-54 -11 -54 -11 -27 -24 38 -17 49 -15 76 13 13 14 19
24 14 24 -5 -1 -33 -6 -63 -13z"/>
<path d="M3204 2059 c-12 -20 13 -33 30 -16 9 9 16 18 16 21 0 11 -39 6 -46
-5z"/>
<path d="M3428 2043 c6 -2 18 -2 25 0 6 3 1 5 -13 5 -14 0 -19 -2 -12 -5z"/>
<path d="M5030 2010 c0 -8 14 -23 30 -32 l30 -17 0 35 c0 32 -2 34 -30 32 -19
-1 -30 -8 -30 -18z"/>
<path d="M1055 1976 c0 -25 3 -40 7 -33 10 16 10 77 1 77 -5 0 -8 -20 -8 -44z"/>
<path d="M4513 1998 c-10 -16 -11 -108 -1 -108 36 0 45 25 32 89 -7 33 -18 39
-31 19z"/>
<path d="M1107 1958 c-18 -9 -18 -11 2 -25 29 -19 27 -43 -3 -43 -33 0 -57 10
-50 21 3 5 -2 6 -10 3 -8 -3 -17 -12 -20 -20 -4 -11 11 -14 87 -13 51 1 83 4
72 6 -30 8 -47 24 -36 37 10 13 1 40 -14 43 -6 1 -18 -3 -28 -9z"/>
<path d="M1166 1962 c-8 -7 50 -32 74 -32 22 0 35 -31 18 -42 -8 -4 14 -8 50
-8 l63 0 -16 31 c-10 19 -22 29 -30 25 -8 -3 -22 2 -30 11 -16 16 -117 28
-129 15z"/>
<path d="M2139 1939 c-24 -17 -58 -39 -76 -50 -33 -21 -49 -63 -38 -99 5 -17
15 -20 58 -20 l52 1 43 89 c57 117 46 139 -39 79z"/>
<path d="M1900 1917 c0 -30 4 -46 10 -42 13 8 13 55 0 75 -7 11 -10 2 -10 -33z"/>
<path d="M2380 1950 c0 -5 5 -10 10 -10 6 0 10 5 10 10 0 6 -4 10 -10 10 -5 0
-10 -4 -10 -10z"/>
<path d="M1585 1920 c-3 -6 1 -7 9 -4 18 7 21 14 7 14 -6 0 -13 -4 -16 -10z"/>
<path d="M956 1901 c-19 -7 -19 -8 3 -14 15 -4 21 -10 15 -19 -4 -7 2 -4 13 7
31 30 15 44 -31 26z"/>
<path d="M4018 1905 c-6 -6 -72 -14 -135 -17 -26 -1 -33 -6 -33 -22 0 -28 8
-39 54 -75 33 -26 47 -31 95 -31 47 0 57 3 58 18 1 9 4 35 9 56 5 29 4 37 -4
32 -7 -4 -12 -3 -12 1 0 15 -25 45 -32 38z"/>
<path d="M421 1884 c0 -11 3 -14 6 -6 3 7 2 16 -1 19 -3 4 -6 -2 -5 -13z"/>
<path d="M4176 1880 c-26 -17 -28 -20 -12 -26 21 -8 66 14 66 33 0 18 -19 15
-54 -7z"/>
<path d="M1530 1865 l-35 -13 30 -2 c17 -1 24 -4 18 -7 -20 -7 -15 -23 6 -23
11 0 22 -4 25 -9 7 -11 -17 -21 -52 -22 -15 0 -22 -3 -15 -5 7 -3 10 -11 7
-18 -7 -19 23 -46 49 -45 19 1 18 2 -8 14 -16 8 -23 14 -15 15 24 1 73 49 66
65 -3 8 -1 15 4 15 14 0 41 31 35 41 -9 13 -74 10 -115 -6z"/>
<path d="M2428 1873 c6 -2 18 -2 25 0 6 3 1 5 -13 5 -14 0 -19 -2 -12 -5z"/>
<path d="M5058 1873 c-33 -5 -34 -6 -7 -49 28 -46 39 -43 39 11 0 25 -1 44 -2
44 -2 -1 -15 -4 -30 -6z"/>
<path d="M2400 1860 c0 -5 5 -10 11 -10 5 0 7 5 4 10 -3 6 -8 10 -11 10 -2 0
-4 -4 -4 -10z"/>
<path d="M3600 1866 c0 -2 8 -10 18 -17 15 -13 16 -12 3 4 -13 16 -21 21 -21
13z"/>
<path d="M2441 1841 c-13 -10 -19 -21 -14 -24 10 -7 50 29 42 37 -2 3 -15 -3
-28 -13z"/>
<path d="M910 1841 c0 -5 7 -14 16 -21 13 -11 19 -10 37 8 l21 22 -37 0 c-20
0 -37 -4 -37 -9z"/>
<path d="M1310 1831 c0 -4 9 -16 19 -25 19 -17 19 -17 14 2 -5 20 -33 39 -33
23z"/>
<path d="M0 1759 c0 -63 13 -89 45 -89 14 0 16 6 10 28 -21 84 -17 110 13 80
9 -9 12 -7 12 9 0 19 -31 33 -71 33 -5 0 -9 -27 -9 -61z"/>
<path d="M147 1813 c-9 -8 -9 -427 -1 -436 3 -3 17 -2 30 3 13 5 60 10 106 11
45 1 92 7 103 13 35 20 47 46 19 46 -25 0 -13 44 13 48 25 4 40 30 15 28 -9 0
-17 5 -17 12 0 7 -6 17 -14 21 -7 5 -11 13 -8 18 3 5 -1 22 -9 38 -8 15 -12
37 -9 49 5 16 4 18 -4 6 -8 -12 -12 -9 -21 14 -7 20 -15 26 -26 22 -11 -4 -15
-2 -11 8 3 7 -2 24 -10 37 -9 12 -12 19 -6 16 6 -4 14 -1 16 5 3 8 6 6 6 -4 1
-10 4 -18 9 -18 9 0 34 52 27 58 -2 2 -24 7 -49 9 -39 5 -48 2 -64 -18 l-19
-23 -12 22 c-11 21 -50 30 -64 15z"/>
<path d="M1070 1803 c0 -5 -2 -38 -3 -75 l-3 -68 30 57 c24 43 40 60 71 74
l40 19 -67 0 c-38 0 -68 -3 -68 -7z"/>
<path d="M1882 1784 c9 -9 21 -13 27 -9 16 10 3 25 -22 25 -20 0 -20 -1 -5
-16z"/>
<path d="M1887 1728 c-9 -18 -13 -36 -11 -40 3 -4 13 -40 24 -80 l19 -73 0
107 c1 59 -3 109 -8 112 -5 3 -16 -9 -24 -26z"/>
<path d="M517 1733 c-4 -3 -7 -28 -7 -54 0 -50 26 -109 48 -109 18 0 15 15
-14 57 -20 30 -25 46 -21 76 5 39 5 41 -6 30z"/>
<path d="M1590 1711 c0 -5 9 -7 20 -4 11 3 20 7 20 9 0 2 -9 4 -20 4 -11 0
-20 -4 -20 -9z"/>
<path d="M1518 1703 c6 -2 18 -2 25 0 6 3 1 5 -13 5 -14 0 -19 -2 -12 -5z"/>
<path d="M935 1664 l-16 -25 25 16 c26 17 34 35 17 35 -5 0 -16 -12 -26 -26z"/>
<path d="M2024 1681 c-2 -2 -4 -43 -4 -90 l0 -86 177 0 176 0 8 28 c14 53 17
128 5 132 -17 6 -357 21 -362 16z"/>
<path d="M1551 1665 c1 -19 18 -51 18 -35 0 8 -4 22 -9 30 -5 8 -9 11 -9 5z"/>
<path d="M476 1643 c-6 -14 -5 -15 5 -6 7 7 10 15 7 18 -3 3 -9 -2 -12 -12z"/>
<path d="M4865 1652 c-2 -2 19 -31 48 -63 l51 -59 13 52 c7 28 11 53 9 55 -6
7 -115 20 -121 15z"/>
<path d="M1511 1624 c0 -11 3 -14 6 -6 3 7 2 16 -1 19 -3 4 -6 -2 -5 -13z"/>
<path d="M1820 1629 c0 -5 5 -7 10 -4 6 3 10 8 10 11 0 2 -4 4 -10 4 -5 0 -10
-5 -10 -11z"/>
<path d="M1718 1583 c20 -57 20 -58 28 -50 6 6 -31 97 -40 97 -3 0 3 -21 12
-47z"/>
<path d="M1675 1610 c-4 -6 -11 -7 -17 -4 -7 5 -9 -3 -5 -22 5 -27 4 -27 -9
-9 -13 17 -14 17 -14 1 0 -9 -4 -15 -9 -11 -5 3 -12 1 -16 -4 -5 -9 59 -21 98
-19 21 2 21 11 2 48 -17 33 -21 35 -30 20z"/>
<path d="M755 1601 c-3 -5 -1 -12 5 -16 5 -3 10 1 10 9 0 18 -6 21 -15 7z"/>
<path d="M1856 1599 c-3 -8 -7 -25 -9 -39 -4 -25 -4 -25 -6 2 0 15 -6 30 -13
34 -6 4 -8 3 -5 -3 10 -15 -18 -24 -32 -10 -18 18 -41 17 -41 -2 0 -10 6 -39
14 -65 12 -38 12 -45 1 -36 -11 9 -14 6 -17 -12 -2 -18 -10 -23 -31 -24 -16
-1 -32 -6 -35 -11 -4 -6 -24 -18 -44 -28 -21 -9 -38 -24 -38 -31 0 -29 235 11
269 45 12 12 25 21 29 21 13 0 -8 144 -23 159 -12 13 -15 13 -19 0z"/>
<path d="M650 1585 c0 -8 4 -15 10 -15 5 0 7 7 4 15 -4 8 -8 15 -10 15 -2 0
-4 -7 -4 -15z"/>
<path d="M695 1590 c-3 -5 1 -10 10 -10 9 0 13 5 10 10 -3 6 -8 10 -10 10 -2
0 -7 -4 -10 -10z"/>
<path d="M7 1583 c-11 -11 -8 -41 5 -45 21 -7 68 4 68 17 0 6 -11 17 -25 23
-30 14 -39 15 -48 5z"/>
<path d="M1501 1560 c0 -8 4 -24 9 -35 5 -13 9 -14 9 -5 0 8 -4 24 -9 35 -5
13 -9 14 -9 5z"/>
<path d="M4337 1523 c-50 -69 -49 -101 4 -73 11 6 19 21 19 36 0 14 5 34 11
45 23 45 1 39 -34 -8z"/>
<path d="M4672 1554 c-18 -10 -49 -42 -71 -75 -47 -70 -62 -147 -41 -210 12
-36 12 -41 -6 -54 -10 -8 -29 -13 -41 -10 -27 6 -27 3 -9 -60 8 -26 12 -61 9
-77 -4 -22 -2 -27 9 -23 8 3 21 -1 28 -10 11 -13 10 -18 -4 -33 -23 -26 -21
-73 4 -79 13 -3 20 -14 20 -28 0 -13 6 -25 13 -28 9 -3 7 -9 -5 -24 -20 -22
-24 -53 -7 -53 6 0 8 -9 4 -21 -7 -21 -6 -21 26 3 19 14 49 33 67 42 l33 17
-6 62 c-13 116 -16 109 40 123 71 19 114 9 131 -30 7 -17 13 -26 14 -21 0 6 5
3 10 -5 8 -13 10 -12 10 3 0 10 10 37 22 60 21 41 22 41 29 17 4 -14 7 -62 8
-107 1 -71 -2 -84 -18 -92 -22 -12 -36 -58 -22 -75 11 -13 4 -56 -9 -56 -16 0
-30 51 -20 71 8 14 7 19 -1 19 -6 0 -8 7 -5 16 4 10 1 14 -6 12 -7 -3 -15 -16
-19 -31 -4 -14 -25 -48 -47 -74 -40 -49 -97 -140 -142 -229 -14 -27 -31 -53
-37 -57 -7 -4 -13 -12 -13 -18 0 -5 -10 -24 -22 -42 -13 -18 -24 -33 -24 -35
-1 -2 -15 -4 -30 -5 -44 -4 -38 -36 10 -55 35 -14 39 -14 47 1 5 9 16 23 25
32 8 8 13 15 10 15 -2 0 25 29 60 65 36 36 67 65 70 65 7 0 -64 -87 -136 -166
-39 -43 -62 -80 -79 -127 -14 -36 -34 -78 -45 -92 l-21 -26 1 30 c0 17 5 36
11 43 22 28 24 38 9 38 -9 0 -28 -19 -42 -41 -18 -29 -28 -38 -34 -29 -5 9
-12 6 -24 -11 -9 -13 -16 -29 -16 -35 0 -14 -54 -38 -71 -32 -7 2 -1 17 18 38
28 33 73 105 73 117 0 3 -13 -9 -29 -26 -16 -17 -34 -31 -40 -31 -6 0 -11 -9
-11 -20 0 -13 -10 -24 -27 -31 -39 -15 -46 2 -17 43 39 55 24 67 -19 15 l-38
-46 23 -35 23 -36 408 0 407 0 0 154 c0 124 -3 158 -15 170 -8 8 -15 19 -15
24 0 5 7 15 15 22 13 11 15 64 15 366 0 268 -3 356 -12 366 -8 7 -14 45 -16
87 -2 72 -20 136 -22 81 l-1 -25 -11 25 -11 25 -7 -25 c-11 -36 -18 -11 -29
93 -8 87 -10 90 -52 133 -68 69 -181 95 -257 58z m390 -1128 c7 -33 -7 -55
-15 -24 -9 32 -8 48 2 48 5 0 11 -11 13 -24z"/>
<path d="M756 1551 c-5 -7 -3 -18 3 -24 14 -14 20 -6 11 17 -5 15 -9 16 -14 7z"/>
<path d="M1114 1520 c3 -14 7 -38 10 -55 2 -16 7 -39 11 -50 3 -11 -4 -2 -15
20 -19 37 -20 37 -15 10 l5 -30 -15 25 c-15 25 -15 25 -10 -10 l5 -35 -15 35
-14 35 4 -40 c4 -31 3 -36 -5 -20 l-10 20 3 -20 c1 -11 8 -21 15 -21 6 -1 18
-2 26 -3 9 -1 12 -8 9 -21 -7 -27 -19 -33 -40 -20 -17 11 -17 11 0 6 9 -3 17
-1 17 4 0 6 -12 10 -26 10 -14 0 -23 -4 -19 -10 6 -9 -8 -14 -27 -11 -5 0 -8
-4 -8 -10 0 -6 10 -9 23 -7 12 2 30 -4 40 -14 28 -25 57 -29 63 -10 3 9 16 44
29 77 40 103 40 104 6 136 -17 15 -31 23 -31 16 0 -7 -4 -6 -10 3 -8 12 -10 9
-6 -10z"/>
<path d="M1482 1530 c0 -8 4 -26 8 -40 6 -20 8 -21 8 -5 0 11 -3 29 -8 40 -5
12 -8 14 -8 5z"/>
<path d="M617 1509 c-6 -22 6 -25 22 -5 9 10 8 15 -3 19 -8 3 -16 -2 -19 -14z"/>
<path d="M1632 1513 c5 -26 38 -29 38 -4 0 15 -6 21 -21 21 -14 0 -19 -5 -17
-17z"/>
<path d="M1460 1500 c0 -11 4 -20 9 -20 5 0 7 9 4 20 -3 11 -7 20 -9 20 -2 0
-4 -9 -4 -20z"/>
<path d="M815 1490 c19 -21 37 -18 28 5 -3 8 -14 15 -26 15 -19 0 -19 -1 -2
-20z"/>
<path d="M1362 1480 c0 -14 2 -19 5 -12 2 6 2 18 0 25 -3 6 -5 1 -5 -13z"/>
<path d="M570 1481 c0 -6 5 -13 10 -16 6 -3 10 1 10 9 0 9 -4 16 -10 16 -5 0
-10 -4 -10 -9z"/>
<path d="M1441 1480 c-1 -19 19 -93 24 -88 2 2 -2 26 -10 53 -7 28 -14 43 -14
35z"/>
<path d="M1342 1455 c0 -16 2 -22 5 -12 2 9 2 23 0 30 -3 6 -5 -1 -5 -18z"/>
<path d="M1471 1453 c-1 -12 4 -25 9 -28 12 -7 12 2 0 30 -8 19 -9 19 -9 -2z"/>
<path d="M4215 1460 c3 -5 8 -10 11 -10 2 0 4 5 4 10 0 6 -5 10 -11 10 -5 0
-7 -4 -4 -10z"/>
<path d="M837 1449 c7 -7 15 -10 18 -7 3 3 -2 9 -12 12 -14 6 -15 5 -6 -5z"/>
<path d="M1426 1430 c7 -40 24 -76 23 -50 0 8 -7 31 -15 50 l-14 35 6 -35z"/>
<path d="M1506 1418 c3 -32 2 -38 -5 -23 -8 17 -9 15 -8 -12 0 -27 3 -31 14
-22 15 13 18 85 4 93 -5 4 -7 -13 -5 -36z"/>
<path d="M1381 1394 c15 -57 20 -64 13 -19 -3 22 -10 44 -14 49 -5 5 -5 -8 1
-30z"/>
<path d="M2015 1390 c-3 -19 -5 -62 -3 -95 2 -49 6 -60 22 -63 17 -4 18 2 14
75 -2 43 -9 87 -15 98 -10 18 -12 16 -18 -15z"/>
<path d="M4257 1413 c-11 -18 -25 -83 -18 -83 9 0 35 80 28 87 -3 2 -7 1 -10
-4z"/>
<path d="M1411 1383 c-1 -12 4 -25 9 -28 12 -7 12 2 0 30 -8 19 -9 19 -9 -2z"/>
<path d="M915 1380 c3 -5 8 -10 11 -10 2 0 4 5 4 10 0 6 -5 10 -11 10 -5 0 -7
-4 -4 -10z"/>
<path d="M1357 1365 c-4 -8 -2 -17 3 -20 6 -4 10 3 10 14 0 25 -6 27 -13 6z"/>
<path d="M4368 1359 c-20 -10 -42 -28 -49 -40 -6 -12 -7 -20 -2 -18 23 11 83
56 87 67 3 6 4 12 3 11 -1 -1 -19 -10 -39 -20z"/>
<path d="M1330 1365 c0 -5 7 -32 15 -60 l15 -50 -6 45 c-6 40 -23 90 -24 65z"/>
<path d="M5064 1355 c-4 -8 1 -32 9 -52 l16 -38 0 53 c1 50 -13 70 -25 37z"/>
<path d="M1766 1350 c-16 -5 -33 -7 -38 -4 -4 3 -8 0 -8 -6 0 -7 -6 -8 -18 -1
-21 11 -48 -2 -38 -18 4 -6 2 -11 -3 -11 -6 0 -11 -6 -11 -13 0 -8 -9 -22 -20
-32 -11 -10 -20 -14 -20 -9 0 5 -7 -4 -15 -20 -23 -44 -18 -44 29 3 24 24 49
40 55 37 10 -6 127 10 142 20 10 6 -5 57 -17 60 -5 1 -22 -2 -38 -6z"/>
<path d="M1312 1330 c0 -14 2 -19 5 -12 2 6 2 18 0 25 -3 6 -5 1 -5 -13z"/>
<path d="M1371 1315 c0 -11 4 -27 9 -35 9 -13 10 -13 9 0 0 8 -4 24 -9 35 l-9
20 0 -20z"/>
<path d="M1396 1322 c-2 -4 -1 -14 5 -22 7 -12 9 -10 9 8 0 23 -5 28 -14 14z"/>
<path d="M1431 1295 c0 -16 4 -37 9 -45 8 -12 10 -11 9 5 -1 11 -5 31 -9 45
-8 24 -8 24 -9 -5z"/>
<path d="M1930 1279 c0 -11 5 -17 10 -14 6 3 10 13 10 21 0 8 -4 14 -10 14 -5
0 -10 -9 -10 -21z"/>
<path d="M1457 1269 c4 -13 8 -18 11 -10 2 7 -1 18 -6 23 -8 8 -9 4 -5 -13z"/>
<path d="M2150 1261 c-28 -6 -20 -8 38 -9 40 -1 77 -4 82 -7 6 -3 10 -1 10 4
0 6 -8 11 -19 11 -10 0 -31 2 -47 4 -16 2 -45 1 -64 -3z"/>
<path d="M1677 1246 c-26 -7 -48 -15 -50 -17 -21 -37 -27 -50 -18 -44 21 13
10 -23 -11 -39 -20 -14 -21 -15 -3 -9 11 3 26 10 32 16 7 5 34 11 60 13 27 2
49 8 51 12 1 5 13 7 26 5 13 -3 27 0 30 6 4 6 3 11 -1 11 -5 0 -9 12 -8 28 0
23 -4 27 -30 29 -16 1 -51 -4 -78 -11z"/>
<path d="M1920 1236 c0 -8 7 -17 16 -20 30 -11 37 -6 19 14 -21 23 -35 26 -35
6z"/>
<path d="M4427 1226 c-5 -15 -6 -31 -3 -34 8 -8 18 25 14 45 -3 13 -6 10 -11
-11z"/>
<path d="M2871 1204 c0 -11 3 -14 6 -6 3 7 2 16 -1 19 -3 4 -6 -2 -5 -13z"/>
<path d="M1902 1181 c-8 -23 -7 -31 4 -35 8 -3 12 -2 9 3 -3 5 7 11 22 13 27
3 42 33 16 33 -6 0 -15 3 -19 8 -13 13 -22 7 -32 -22z"/>
<path d="M2100 1178 c0 -5 8 -9 18 -9 9 -1 30 -3 46 -5 16 -2 36 1 45 5 10 6
-6 10 -47 13 -34 1 -62 0 -62 -4z"/>
<path d="M1854 1145 c0 -22 3 -31 8 -23 10 16 10 58 1 58 -5 0 -8 -16 -9 -35z"/>
<path d="M2900 1151 c0 -25 6 -27 13 -6 4 8 2 17 -3 20 -6 4 -10 -3 -10 -14z"/>
<path d="M2065 1150 c3 -6 -4 -10 -16 -10 -26 0 -15 -15 16 -23 11 -3 3 -5
-18 -6 -21 0 -54 6 -74 14 -48 20 -49 20 -19 -16 39 -46 47 -108 13 -96 -7 2
-22 1 -33 -4 -12 -4 -25 -5 -29 -1 -7 7 -13 9 -46 11 -17 1 -20 6 -17 26 3 14
2 25 -1 26 -3 0 -13 2 -21 3 -8 2 -24 0 -35 -5 -16 -6 -16 -8 -3 -8 18 -1 58
-63 58 -91 0 -10 6 -23 14 -27 7 -4 16 -15 19 -23 5 -11 6 -9 6 5 -2 34 1 41
11 25 8 -12 13 -11 34 9 24 23 56 26 63 5 2 -6 -8 -16 -22 -22 -38 -18 -30
-27 24 -30 26 -1 64 -8 83 -16 35 -15 36 -15 68 19 23 24 43 35 62 35 32 0 38
-16 10 -24 -11 -4 -29 -18 -42 -31 -22 -23 -22 -25 -4 -26 91 -5 161 15 205
58 26 24 48 36 74 38 36 4 87 35 57 35 -7 0 -10 5 -7 11 5 7 13 5 24 -5 24
-22 84 -25 88 -5 3 12 -5 15 -37 13 -31 -1 -43 3 -51 17 -13 25 -25 24 -32 -1
-3 -14 -14 -20 -31 -20 -14 0 -26 -3 -26 -7 0 -5 -12 -9 -27 -10 -16 -1 -53
-5 -83 -8 -30 -4 -71 -2 -90 3 -33 10 -34 10 -7 11 16 1 26 5 22 11 -3 6 -1
10 4 10 15 0 14 19 -2 34 -8 8 -20 10 -32 5 -32 -12 -78 -10 -99 6 -32 24 -14
39 45 37 30 -1 48 1 41 4 -6 3 -10 9 -7 14 3 4 -6 10 -20 12 -14 3 -25 1 -25
-3 0 -10 -31 -12 -54 -3 -9 3 -16 12 -16 20 0 8 -5 14 -11 14 -5 0 -7 -4 -4
-10z m120 -120 c4 -6 -5 -10 -19 -10 -14 0 -26 5 -26 10 0 6 9 10 19 10 11 0
23 -4 26 -10z"/>
<path d="M1680 1140 c-8 -5 -27 -10 -42 -10 -15 0 -30 -5 -34 -11 -3 -6 -17
-8 -30 -5 -14 4 -24 2 -24 -4 0 -5 11 -10 25 -10 14 0 25 -4 25 -10 0 -5 -11
-10 -24 -10 -30 0 -45 -19 -53 -64 -6 -39 11 -51 20 -15 3 11 15 23 26 26 13
3 18 10 13 21 -5 15 -3 15 11 4 20 -17 52 -8 91 25 19 16 38 23 53 20 24 -4
29 7 17 37 -7 18 -50 21 -74 6z"/>
<path d="M2229 1113 c-13 -16 -12 -17 4 -4 9 7 17 15 17 17 0 8 -8 3 -21 -13z"/>
<path d="M2912 1114 c-7 -8 -8 -14 -3 -14 10 0 25 19 20 25 -2 1 -10 -3 -17
-11z"/>
<path d="M2139 1069 c-10 -6 -7 -9 14 -9 29 0 35 5 14 13 -8 3 -20 1 -28 -4z"/>
<path d="M1238 1038 c8 -8 17 -8 34 0 22 10 21 11 -11 11 -27 1 -32 -2 -23
-11z"/>
<path d="M1382 1023 c-10 -26 -11 -26 -6 -3 l5 25 -15 -25 c-9 -14 -15 -19
-16 -11 0 8 -2 12 -6 9 -3 -3 -21 -2 -40 2 -38 9 -47 -3 -11 -15 21 -8 21 -8
-5 -12 -15 -2 -48 5 -73 16 l-46 20 7 -22 c11 -34 54 -87 86 -103 29 -15 35
-28 18 -39 -6 -4 -9 -1 -8 7 2 8 -7 13 -27 13 -20 0 -29 5 -27 13 1 8 -2 11
-8 7 -7 -4 -23 4 -37 16 -24 22 -25 23 -15 3 6 -12 27 -35 46 -52 30 -26 32
-31 16 -35 -10 -3 -33 4 -52 15 l-33 20 20 -22 20 -23 -22 7 c-19 6 -22 4 -20
-21 2 -23 9 -29 40 -36 21 -5 37 -15 37 -23 0 -8 -5 -14 -11 -14 -5 0 -8 -4
-4 -9 3 -5 -5 -13 -17 -17 -39 -12 -108 -93 -80 -94 4 0 18 -10 32 -21 17 -13
8 -11 -27 8 -34 18 -47 31 -40 36 7 5 2 5 -12 2 -17 -5 -22 -4 -19 6 3 8 15
15 27 17 27 4 22 26 -7 30 -12 2 -22 8 -22 13 0 17 -25 9 -92 -30 l-67 -39 -9
27 c-10 27 -10 27 -81 20 -64 -5 -79 -11 -139 -52 -37 -26 -86 -64 -108 -86
-38 -35 -50 -40 -135 -55 -52 -9 -108 -17 -126 -18 -28 -3 -30 -5 -19 -21 12
-16 16 -16 49 -2 54 22 83 19 119 -15 17 -17 39 -30 49 -30 17 0 17 -3 0 -62
-16 -55 -21 -63 -44 -66 -33 -4 -36 -22 -5 -21 13 1 156 -1 318 -4 316 -6 416
-2 386 15 -17 9 -17 11 0 29 9 10 30 19 46 19 17 0 27 4 23 10 -3 6 -15 10
-26 10 -10 0 -19 2 -19 5 0 9 72 99 89 112 15 11 15 12 -1 13 -9 0 -21 14 -27
32 -6 17 -19 41 -29 52 -9 10 -11 16 -4 12 8 -5 21 -1 33 10 17 15 23 16 41 5
11 -7 21 -11 23 -9 2 2 11 33 21 70 17 63 17 68 1 86 -9 10 -17 25 -17 34 0
16 25 42 51 51 9 3 23 29 31 59 l15 53 -26 6 c-14 4 -44 7 -66 8 -37 2 -38 3
-22 16 13 9 36 12 73 9 39 -3 54 -1 55 8 5 46 7 56 13 67 4 6 3 11 -1 11 -5 0
-14 -12 -21 -27z m-222 -217 c0 -3 -4 -8 -10 -11 -5 -3 -10 -1 -10 4 0 6 5 11
10 11 6 0 10 -2 10 -4z m-101 -206 c45 -53 40 -63 -16 -29 -21 13 -32 27 -29
35 6 16 4 17 -18 8 -13 -5 -14 -9 -5 -20 6 -8 8 -14 5 -14 -10 0 -106 50 -106
55 0 2 16 2 36 -1 20 -2 43 0 52 6 29 16 37 12 81 -40z"/>
<path d="M1679 1021 c-13 -16 -30 -38 -37 -50 -15 -25 -3 -27 47 -10 26 9 31
16 31 44 0 45 -12 50 -41 16z"/>
<path d="M1605 1023 c-24 -6 -40 -20 -40 -36 0 -6 -14 -15 -32 -20 -23 -7 -32
-16 -36 -36 -2 -14 -8 -34 -12 -43 -5 -13 -3 -18 9 -18 9 0 21 11 26 24 6 18
21 27 60 36 28 7 49 15 46 18 -3 3 -1 11 5 18 6 8 9 21 5 29 -3 8 -1 15 4 15
6 0 10 5 10 10 0 10 -11 11 -45 3z"/>
<path d="M1795 939 c0 -41 9 -40 19 2 4 18 1 29 -7 32 -9 3 -13 -6 -12 -34z"/>
<path d="M1645 932 c-15 -10 -35 -93 -21 -84 6 3 22 8 35 10 45 6 51 14 36 50
-14 31 -30 39 -50 24z"/>
<path d="M1549 889 c-9 -17 -8 -24 2 -31 10 -7 8 -8 -8 -3 -44 12 -70 -4 -82
-50 -14 -56 -14 -56 5 -48 8 3 20 16 25 29 4 13 16 24 24 24 9 0 13 5 10 10
-4 6 -3 10 2 9 4 -1 22 -1 38 0 28 1 30 3 30 41 0 31 -4 40 -17 40 -10 0 -22
-10 -29 -21z"/>
<path d="M1815 871 c-9 -19 -11 -32 -5 -36 6 -3 10 -2 10 4 0 6 6 8 14 5 14
-5 26 22 19 44 -7 20 -22 14 -38 -17z"/>
<path d="M1762 859 c2 -7 10 -15 17 -17 8 -3 12 1 9 9 -2 7 -10 15 -17 17 -8
3 -12 -1 -9 -9z"/>
<path d="M862 838 c3 -7 15 -14 29 -16 23 -2 23 -2 5 13 -24 18 -39 20 -34 3z"/>
<path d="M1875 815 c2 -42 21 -68 31 -42 7 19 -8 69 -23 74 -6 2 -9 -11 -8
-32z"/>
<path d="M2182 825 c0 -16 2 -22 5 -12 2 9 2 23 0 30 -3 6 -5 -1 -5 -18z"/>
<path d="M1577 811 c-27 -9 -47 -19 -45 -22 6 -10 -29 -38 -56 -45 -32 -8 -38
-15 -26 -34 7 -12 21 -10 86 10 79 25 124 59 124 92 0 22 -18 21 -83 -1z m26
-47 c-7 -19 -10 -18 -16 5 -3 13 -1 18 9 14 7 -2 10 -11 7 -19z"/>
<path d="M857 803 c-10 -10 -8 -51 3 -58 12 -8 60 5 60 16 0 11 -37 49 -48 49
-5 0 -12 -3 -15 -7z"/>
<path d="M4634 761 c-61 -49 -79 -74 -68 -92 10 -16 61 19 108 74 25 30 46 57
46 61 0 17 -31 1 -86 -43z"/>
<path d="M1786 765 c-11 -30 -6 -40 11 -22 12 12 14 20 6 28 -7 7 -12 6 -17
-6z"/>
<path d="M2095 758 c-4 -10 -4 -26 0 -35 8 -17 8 -17 12 0 3 9 3 25 0 35 -4
16 -4 16 -12 0z"/>
<path d="M1734 718 l0 -42 13 32 c8 18 11 37 8 43 -13 19 -20 7 -21 -33z"/>
<path d="M2316 715 c4 -8 8 -15 10 -15 2 0 4 7 4 15 0 8 -4 15 -10 15 -5 0 -7
-7 -4 -15z"/>
<path d="M868 713 c6 -2 9 -10 6 -15 -4 -7 -2 -8 5 -4 13 9 5 26 -12 25 -9 0
-8 -2 1 -6z"/>
<path d="M783 703 c9 -2 23 -2 30 0 6 3 -1 5 -18 5 -16 0 -22 -2 -12 -5z"/>
<path d="M1731 572 c-24 -75 -46 -132 -48 -125 -2 6 0 29 6 49 12 44 8 54 -22
54 -37 0 -51 -14 -38 -38 15 -27 14 -32 -4 -32 -8 0 -15 -5 -15 -11 0 -6 9 -8
20 -4 15 5 20 2 18 -12 -4 -49 0 -53 47 -48 45 4 97 24 66 25 -11 0 -8 6 7 20
19 18 22 31 21 93 -1 40 -6 78 -13 86 -8 12 -8 13 2 7 8 -5 12 0 11 16 -2 70
-16 51 -58 -80z m49 28 c0 -5 -2 -10 -4 -10 -3 0 -8 5 -11 10 -3 6 -1 10 4 10
6 0 11 -4 11 -10z m-100 -88 c0 -15 -2 -15 -10 -2 -13 20 -13 33 0 25 6 -3 10
-14 10 -23z"/>
<path d="M1610 673 c0 -27 9 -29 36 -9 19 15 19 15 -1 12 -11 -2 -23 2 -27 8
-5 6 -8 2 -8 -11z"/>
<path d="M581 669 c-16 -6 -21 -13 -15 -19 6 -6 28 -3 59 10 50 19 50 19 15
19 -19 0 -46 -5 -59 -10z"/>
<path d="M1706 631 c7 -32 -13 -52 -27 -30 -7 11 -9 11 -9 -2 0 -9 9 -19 19
-22 15 -4 22 2 30 26 14 39 14 44 -4 50 -11 5 -13 0 -9 -22z"/>
<path d="M4584 625 c-9 -14 -14 -28 -11 -31 3 -3 13 8 22 25 19 37 12 41 -11
6z"/>
<path d="M1613 575 c0 -27 7 -31 25 -13 8 8 9 15 1 25 -17 20 -26 16 -26 -12z"/>
<path d="M4355 522 c-168 -86 -239 -144 -250 -205 -9 -45 11 -139 36 -170 21
-27 25 -47 9 -47 -5 0 -10 -4 -10 -10 0 -16 36 -12 51 6 8 9 19 44 26 77 15
75 51 115 143 162 52 27 75 47 115 101 83 111 81 106 60 137 -9 15 -20 27 -24
27 -3 0 -73 -35 -156 -78z"/>
<path d="M2070 566 c0 -9 5 -16 10 -16 6 0 10 4 10 9 0 6 -4 13 -10 16 -5 3
-10 -1 -10 -9z"/>
<path d="M1387 550 c-3 -13 0 -20 9 -20 8 0 14 -7 14 -15 0 -8 6 -16 13 -16 6
-1 -4 -4 -23 -8 -22 -4 -36 -12 -38 -23 -5 -24 11 -22 52 6 29 20 33 26 22 35
-8 7 -17 23 -20 36 -8 30 -22 32 -29 5z"/>
<path d="M2058 491 c-3 -20 0 -27 8 -24 7 3 15 -8 19 -26 4 -17 13 -31 20 -31
11 0 11 8 -1 45 -22 74 -39 87 -46 36z"/>
<path d="M1423 463 c-67 -34 -32 -88 41 -63 42 13 41 13 19 51 -20 33 -18 33
-60 12z"/>
<path d="M1877 473 c-4 -7 -5 -25 -1 -40 3 -15 7 -40 7 -55 1 -17 7 -28 15
-28 10 0 12 6 7 23 -4 12 -10 42 -14 67 -3 27 -9 40 -14 33z"/>
<path d="M3420 460 c0 -5 7 -10 16 -10 8 0 12 5 9 10 -3 6 -10 10 -16 10 -5 0
-9 -4 -9 -10z"/>
<path d="M3030 451 c0 -9 24 -21 43 -21 6 0 2 7 -9 15 -22 17 -34 19 -34 6z"/>
<path d="M2170 436 c0 -23 -28 -45 -50 -39 -15 4 -19 2 -15 -9 5 -12 12 -13
40 -4 29 9 35 16 35 38 0 16 -2 28 -5 28 -3 0 -5 -6 -5 -14z"/>
<path d="M2260 435 c-6 -8 -9 -23 -5 -34 4 -14 0 -23 -15 -31 -26 -14 -25 -24
2 -50 30 -28 60 -25 76 7 16 36 15 69 -4 98 -18 28 -36 32 -54 10z"/>
<path d="M3128 444 c-32 -31 43 -47 227 -48 132 -1 160 1 160 13 0 8 -6 16
-14 19 -8 3 -11 0 -7 -6 11 -17 -51 -25 -153 -18 -165 11 -200 17 -203 33 -2
8 -6 11 -10 7z"/>
<path d="M2490 400 c0 -5 5 -10 11 -10 5 0 7 5 4 10 -3 6 -8 10 -11 10 -2 0
-4 -4 -4 -10z"/>
<path d="M2960 401 c0 -11 25 -21 53 -21 21 1 21 1 -3 15 -29 16 -50 19 -50 6z"/>
<path d="M1428 372 c-38 -18 -58 -33 -58 -44 0 -10 -6 -18 -12 -18 -7 0 0 -7
16 -15 28 -15 33 -14 102 16 l73 32 -15 29 c-18 34 -32 34 -106 0z"/>
<path d="M3075 381 c-3 -5 4 -13 16 -16 28 -9 33 -2 9 13 -11 6 -21 8 -25 3z"/>
<path d="M355 328 c-11 -54 -10 -63 9 -63 11 0 20 8 22 17 1 11 -3 15 -12 11
-11 -4 -13 2 -8 26 4 17 4 31 0 31 -3 0 -8 -10 -11 -22z"/>
<path d="M1730 342 c0 -14 58 -42 87 -42 26 1 25 2 -11 15 -21 7 -43 18 -49
24 -13 13 -27 14 -27 3z"/>
<path d="M3603 343 c9 -2 25 -2 35 0 9 3 1 5 -18 5 -19 0 -27 -2 -17 -5z"/>
<path d="M3495 328 c-27 -5 -137 -10 -244 -11 -109 -1 -176 -5 -155 -9 49 -9
372 -10 441 -2 44 6 50 9 38 20 -7 8 -17 13 -22 13 -4 -1 -30 -6 -58 -11z"/>
<path d="M3604 321 c5 -8 56 -3 56 5 0 2 -14 4 -31 4 -16 0 -28 -4 -25 -9z"/>
<path d="M2146 298 c5 -8 -3 -9 -29 -5 -38 6 -47 -3 -47 -48 0 -20 -8 -26 -42
-36 -24 -7 -48 -18 -53 -25 -6 -7 -26 -10 -48 -8 -28 3 -37 1 -37 -10 0 -20 8
-24 118 -56 79 -23 99 -25 107 -15 6 7 26 20 45 28 30 13 32 15 11 16 -17 1
-21 5 -17 17 3 8 -1 26 -10 39 -20 31 -13 52 21 61 14 3 25 10 25 14 0 22 -14
40 -32 40 -12 0 -17 -4 -12 -12z"/>
<path d="M210 280 l-55 -6 67 -4 c76 -6 139 3 78 11 -19 2 -60 2 -90 -1z"/>
<path d="M2305 282 c-6 -4 -11 -14 -13 -22 -2 -8 -8 -16 -13 -18 -13 -5 -11
-22 4 -22 26 1 48 27 40 48 -5 12 -13 18 -18 14z"/>
<path d="M2972 232 c-8 -5 12 -13 51 -20 89 -16 96 -16 90 8 -5 17 -14 20 -67
20 -33 0 -67 -4 -74 -8z m106 -9 c-10 -2 -26 -2 -35 0 -10 3 -2 5 17 5 19 0
27 -2 18 -5z"/>
<path d="M3175 220 c-3 -5 1 -10 9 -10 9 0 16 5 16 10 0 6 -4 10 -9 10 -6 0
-13 -4 -16 -10z"/>
<path d="M1910 205 c0 -8 7 -15 15 -15 8 0 15 4 15 9 0 5 -7 11 -15 15 -9 3
-15 0 -15 -9z"/>
<path d="M3745 200 c-16 -11 -42 -20 -56 -20 -23 0 -59 -26 -59 -43 0 -10 61
-7 85 3 17 7 17 9 3 9 -37 2 -16 21 21 21 45 0 82 27 59 41 -18 12 -19 12 -53
-11z"/>
<path d="M4450 179 c0 -11 5 -17 10 -14 6 3 10 13 10 21 0 8 -4 14 -10 14 -5
0 -10 -9 -10 -21z"/>
<path d="M2279 163 c-11 -3 -15 -15 -13 -46 1 -23 -3 -48 -8 -54 -8 -10 -1
-13 30 -13 39 0 40 1 44 39 2 22 2 45 0 50 -5 15 -34 28 -53 24z"/>
<path d="M1627 110 c-3 -11 0 -20 6 -21 27 -1 -31 -18 -65 -18 -46 -1 -51 -21
-6 -21 62 0 208 23 202 32 -3 4 -29 6 -57 2 -42 -5 -50 -4 -40 6 10 11 9 16
-5 26 -23 18 -29 17 -35 -6z"/>
<path d="M3200 87 c0 -31 2 -33 63 -41 l47 -7 0 30 c0 26 -4 31 -24 31 -13 0
-38 3 -55 6 -28 6 -31 4 -31 -19z"/>
<path d="M3007 55 c-4 -25 4 -40 17 -28 9 9 7 41 -3 47 -5 3 -11 -6 -14 -19z"/>
<path d="M3367 74 c-4 -4 -7 -15 -7 -24 0 -13 7 -16 30 -12 26 4 45 32 21 32
-5 0 -16 2 -23 5 -8 3 -17 2 -21 -1z"/>
<path d="M4035 10 c-3 -5 3 -10 15 -10 12 0 18 5 15 10 -3 6 -10 10 -15 10 -5
0 -12 -4 -15 -10z"/>
<path d="M3388 3 c6 -2 18 -2 25 0 6 3 1 5 -13 5 -14 0 -19 -2 -12 -5z"/>
</g>
</svg>
