<svg width="517" height="180" viewBox="0 0 517 180" fill="none" xmlns="http://www.w3.org/2000/svg">
<rect y="0.493652" width="517" height="179" rx="4" fill="white"/>
<path d="M19.5278 19.7975H21.0538L25.3238 29.7095H23.3078L22.3838 27.4415H18.0858L17.1898 29.7095H15.2158L19.5278 19.7975ZM21.7678 25.9295L20.2418 21.8975L18.6878 25.9295H21.7678ZM26.5753 19.7975H30.4393C30.8127 19.7975 31.1813 19.8441 31.5453 19.9375C31.9093 20.0215 32.2313 20.1661 32.5113 20.3715C32.8007 20.5675 33.034 20.8241 33.2113 21.1415C33.3887 21.4588 33.4773 21.8415 33.4773 22.2895C33.4773 22.8495 33.3187 23.3115 33.0013 23.6755C32.684 24.0395 32.2687 24.3008 31.7553 24.4595V24.4875C32.0633 24.5248 32.348 24.6135 32.6093 24.7535C32.88 24.8841 33.1087 25.0568 33.2953 25.2715C33.482 25.4768 33.6267 25.7195 33.7293 25.9995C33.8413 26.2701 33.8973 26.5641 33.8973 26.8815C33.8973 27.4228 33.79 27.8755 33.5753 28.2395C33.3607 28.5941 33.076 28.8835 32.7213 29.1075C32.376 29.3221 31.9747 29.4761 31.5173 29.5695C31.0693 29.6628 30.612 29.7095 30.1453 29.7095H26.5753V19.7975ZM28.3393 23.8295H29.9493C30.5373 23.8295 30.976 23.7175 31.2653 23.4935C31.564 23.2601 31.7133 22.9568 31.7133 22.5835C31.7133 22.1541 31.5593 21.8368 31.2513 21.6315C30.9527 21.4168 30.4673 21.3095 29.7953 21.3095H28.3393V23.8295ZM28.3393 28.1975H29.9633C30.1873 28.1975 30.4253 28.1835 30.6773 28.1555C30.9387 28.1275 31.1767 28.0621 31.3913 27.9595C31.606 27.8568 31.7833 27.7121 31.9233 27.5255C32.0633 27.3295 32.1333 27.0681 32.1333 26.7415C32.1333 26.2188 31.9607 25.8548 31.6153 25.6495C31.2793 25.4441 30.752 25.3415 30.0333 25.3415H28.3393V28.1975ZM42.6075 22.1215C42.2435 21.7295 41.8888 21.4681 41.5435 21.3375C41.2075 21.2068 40.8668 21.1415 40.5215 21.1415C40.0081 21.1415 39.5415 21.2348 39.1215 21.4215C38.7108 21.5988 38.3561 21.8508 38.0575 22.1775C37.7588 22.4948 37.5255 22.8681 37.3575 23.2975C37.1988 23.7268 37.1195 24.1888 37.1195 24.6835C37.1195 25.2155 37.1988 25.7055 37.3575 26.1535C37.5255 26.6015 37.7588 26.9888 38.0575 27.3155C38.3561 27.6421 38.7108 27.8988 39.1215 28.0855C39.5415 28.2721 40.0081 28.3655 40.5215 28.3655C40.9228 28.3655 41.3101 28.2721 41.6835 28.0855C42.0661 27.8895 42.4208 27.5815 42.7475 27.1615L44.2035 28.1975C43.7555 28.8135 43.2095 29.2615 42.5655 29.5415C41.9215 29.8215 41.2355 29.9615 40.5075 29.9615C39.7421 29.9615 39.0375 29.8401 38.3935 29.5975C37.7588 29.3455 37.2081 28.9955 36.7415 28.5475C36.2841 28.0901 35.9248 27.5441 35.6635 26.9095C35.4021 26.2748 35.2715 25.5701 35.2715 24.7955C35.2715 24.0021 35.4021 23.2835 35.6635 22.6395C35.9248 21.9861 36.2841 21.4308 36.7415 20.9735C37.2081 20.5161 37.7588 20.1661 38.3935 19.9235C39.0375 19.6715 39.7421 19.5455 40.5075 19.5455C41.1795 19.5455 41.8001 19.6668 42.3695 19.9095C42.9481 20.1428 43.4848 20.5441 43.9795 21.1135L42.6075 22.1215ZM48.9674 24.8515C48.6408 24.3941 48.2021 24.1655 47.6514 24.1655C47.4274 24.1655 47.2081 24.2215 46.9934 24.3335C46.7788 24.4455 46.6714 24.6275 46.6714 24.8795C46.6714 25.0848 46.7601 25.2341 46.9374 25.3275C47.1148 25.4208 47.3388 25.5001 47.6094 25.5655C47.8801 25.6308 48.1694 25.7008 48.4774 25.7755C48.7948 25.8408 49.0888 25.9481 49.3594 26.0975C49.6301 26.2375 49.8541 26.4335 50.0314 26.6855C50.2088 26.9375 50.2974 27.2828 50.2974 27.7215C50.2974 28.1228 50.2088 28.4635 50.0314 28.7435C49.8634 29.0141 49.6394 29.2335 49.3594 29.4015C49.0888 29.5695 48.7808 29.6908 48.4354 29.7655C48.0901 29.8401 47.7448 29.8775 47.3994 29.8775C46.8768 29.8775 46.3961 29.8028 45.9574 29.6535C45.5188 29.5041 45.1268 29.2335 44.7814 28.8415L45.9014 27.7915C46.1161 28.0341 46.3448 28.2348 46.5874 28.3935C46.8394 28.5428 47.1428 28.6175 47.4974 28.6175C47.6188 28.6175 47.7448 28.6035 47.8754 28.5755C48.0061 28.5475 48.1274 28.5008 48.2394 28.4355C48.3514 28.3701 48.4401 28.2908 48.5054 28.1975C48.5801 28.0948 48.6174 27.9781 48.6174 27.8475C48.6174 27.6141 48.5288 27.4415 48.3514 27.3295C48.1741 27.2175 47.9501 27.1288 47.6794 27.0635C47.4088 26.9888 47.1148 26.9235 46.7974 26.8675C46.4894 26.8021 46.2001 26.7041 45.9294 26.5735C45.6588 26.4335 45.4348 26.2421 45.2574 25.9995C45.0801 25.7568 44.9914 25.4208 44.9914 24.9915C44.9914 24.6181 45.0661 24.2961 45.2154 24.0255C45.3741 23.7455 45.5794 23.5168 45.8314 23.3395C46.0834 23.1621 46.3728 23.0315 46.6994 22.9475C47.0261 22.8635 47.3574 22.8215 47.6934 22.8215C48.1414 22.8215 48.5848 22.9008 49.0234 23.0595C49.4621 23.2088 49.8168 23.4701 50.0874 23.8435L48.9674 24.8515ZM60.2467 28.7855H60.2047C59.9621 29.1681 59.6541 29.4481 59.2807 29.6255C58.9074 29.7935 58.4967 29.8775 58.0487 29.8775C57.7407 29.8775 57.4374 29.8355 57.1387 29.7515C56.8494 29.6675 56.5881 29.5415 56.3547 29.3735C56.1307 29.2055 55.9487 28.9955 55.8087 28.7435C55.6687 28.4915 55.5987 28.1975 55.5987 27.8615C55.5987 27.4975 55.6641 27.1895 55.7947 26.9375C55.9254 26.6761 56.0981 26.4615 56.3127 26.2935C56.5367 26.1161 56.7934 25.9761 57.0827 25.8735C57.3721 25.7708 57.6707 25.6961 57.9787 25.6495C58.2961 25.5935 58.6134 25.5608 58.9307 25.5515C59.2481 25.5328 59.5467 25.5235 59.8267 25.5235H60.2467V25.3415C60.2467 24.9215 60.1021 24.6088 59.8127 24.4035C59.5234 24.1888 59.1547 24.0815 58.7067 24.0815C58.3521 24.0815 58.0207 24.1468 57.7127 24.2775C57.4047 24.3988 57.1387 24.5668 56.9147 24.7815L56.0327 23.8995C56.4061 23.5168 56.8401 23.2415 57.3347 23.0735C57.8387 22.9055 58.3567 22.8215 58.8887 22.8215C59.3647 22.8215 59.7661 22.8775 60.0927 22.9895C60.4194 23.0921 60.6901 23.2275 60.9047 23.3955C61.1194 23.5635 61.2827 23.7595 61.3947 23.9835C61.5161 24.1981 61.6001 24.4175 61.6467 24.6415C61.7027 24.8655 61.7354 25.0848 61.7447 25.2995C61.7541 25.5048 61.7587 25.6868 61.7587 25.8455V29.7095H60.2467V28.7855ZM60.1487 26.6995H59.7987C59.5654 26.6995 59.3041 26.7088 59.0147 26.7275C58.7254 26.7461 58.4501 26.7928 58.1887 26.8675C57.9367 26.9328 57.7221 27.0355 57.5447 27.1755C57.3674 27.3061 57.2787 27.4928 57.2787 27.7355C57.2787 27.8941 57.3114 28.0295 57.3767 28.1415C57.4514 28.2441 57.5447 28.3328 57.6567 28.4075C57.7687 28.4821 57.8947 28.5381 58.0347 28.5755C58.1747 28.6035 58.3147 28.6175 58.4547 28.6175C59.0334 28.6175 59.4581 28.4821 59.7287 28.2115C60.0087 27.9315 60.1487 27.5535 60.1487 27.0775V26.6995ZM63.7163 22.9895H65.3123V24.0675H65.3403C65.4989 23.7315 65.7416 23.4421 66.0683 23.1995C66.3949 22.9475 66.8383 22.8215 67.3983 22.8215C67.8463 22.8215 68.2243 22.8961 68.5323 23.0455C68.8496 23.1948 69.1063 23.3908 69.3023 23.6335C69.4983 23.8761 69.6383 24.1561 69.7223 24.4735C69.8063 24.7908 69.8483 25.1221 69.8483 25.4675V29.7095H68.1683V26.3075C68.1683 26.1208 68.1589 25.9155 68.1403 25.6915C68.1216 25.4581 68.0703 25.2435 67.9863 25.0475C67.9116 24.8421 67.7903 24.6741 67.6223 24.5435C67.4543 24.4035 67.2256 24.3335 66.9363 24.3335C66.6563 24.3335 66.4183 24.3801 66.2223 24.4735C66.0356 24.5668 65.8769 24.6928 65.7463 24.8515C65.6249 25.0101 65.5363 25.1921 65.4803 25.3975C65.4243 25.6028 65.3963 25.8175 65.3963 26.0415V29.7095H63.7163V22.9895ZM77.2253 28.7015H77.1973C76.9547 29.1121 76.628 29.4108 76.2173 29.5975C75.8067 29.7841 75.3633 29.8775 74.8873 29.8775C74.3647 29.8775 73.898 29.7888 73.4873 29.6115C73.086 29.4248 72.7407 29.1728 72.4513 28.8555C72.162 28.5381 71.9427 28.1648 71.7933 27.7355C71.644 27.3061 71.5693 26.8441 71.5693 26.3495C71.5693 25.8548 71.6487 25.3928 71.8073 24.9635C71.966 24.5341 72.1853 24.1608 72.4653 23.8435C72.7547 23.5261 73.1 23.2788 73.5013 23.1015C73.9027 22.9148 74.3413 22.8215 74.8173 22.8215C75.1347 22.8215 75.4147 22.8541 75.6573 22.9195C75.9 22.9848 76.1147 23.0688 76.3013 23.1715C76.488 23.2741 76.6467 23.3861 76.7773 23.5075C76.908 23.6195 77.0153 23.7315 77.0993 23.8435H77.1413V19.1255H78.8213V29.7095H77.2253V28.7015ZM73.2493 26.3495C73.2493 26.6108 73.2913 26.8628 73.3753 27.1055C73.4687 27.3481 73.5993 27.5628 73.7673 27.7495C73.9447 27.9361 74.1547 28.0855 74.3973 28.1975C74.64 28.3095 74.9153 28.3655 75.2233 28.3655C75.5313 28.3655 75.8067 28.3095 76.0493 28.1975C76.292 28.0855 76.4973 27.9361 76.6653 27.7495C76.8427 27.5628 76.9733 27.3481 77.0573 27.1055C77.1507 26.8628 77.1973 26.6108 77.1973 26.3495C77.1973 26.0881 77.1507 25.8361 77.0573 25.5935C76.9733 25.3508 76.8427 25.1361 76.6653 24.9495C76.4973 24.7628 76.292 24.6135 76.0493 24.5015C75.8067 24.3895 75.5313 24.3335 75.2233 24.3335C74.9153 24.3335 74.64 24.3895 74.3973 24.5015C74.1547 24.6135 73.9447 24.7628 73.7673 24.9495C73.5993 25.1361 73.4687 25.3508 73.3753 25.5935C73.2913 25.8361 73.2493 26.0881 73.2493 26.3495ZM87.9663 21.7295L86.1043 23.4515L85.1243 22.2895L88.1203 19.7975H89.6463V29.7095H87.9663V21.7295ZM93.4754 27.9315L97.3254 24.2075C97.4374 24.0955 97.5541 23.9788 97.6754 23.8575C97.7967 23.7268 97.9041 23.5915 97.9974 23.4515C98.1001 23.3115 98.1841 23.1668 98.2494 23.0175C98.3147 22.8588 98.3474 22.6955 98.3474 22.5275C98.3474 22.3221 98.3054 22.1401 98.2214 21.9815C98.1467 21.8228 98.0441 21.6875 97.9134 21.5755C97.7827 21.4635 97.6287 21.3795 97.4514 21.3235C97.2834 21.2581 97.1014 21.2255 96.9054 21.2255C96.4854 21.2255 96.1401 21.3468 95.8694 21.5895C95.5987 21.8321 95.4354 22.1588 95.3794 22.5695L93.6154 22.4295C93.6527 21.9721 93.7601 21.5708 93.9374 21.2255C94.1241 20.8708 94.3621 20.5768 94.6514 20.3435C94.9407 20.1101 95.2767 19.9328 95.6594 19.8115C96.0421 19.6901 96.4574 19.6295 96.9054 19.6295C97.3534 19.6295 97.7687 19.6901 98.1514 19.8115C98.5434 19.9235 98.8841 20.0961 99.1734 20.3295C99.4627 20.5535 99.6914 20.8428 99.8594 21.1975C100.027 21.5521 100.111 21.9675 100.111 22.4435C100.111 23.0688 99.9667 23.6101 99.6774 24.0675C99.3974 24.5155 99.0334 24.9448 98.5854 25.3555L95.5194 28.1975H100.111V29.7095H93.4754V27.9315ZM104.193 23.7875H104.627C104.869 23.7875 105.103 23.7735 105.327 23.7455C105.56 23.7175 105.765 23.6568 105.943 23.5635C106.129 23.4701 106.279 23.3348 106.391 23.1575C106.503 22.9801 106.559 22.7421 106.559 22.4435C106.559 22.0608 106.428 21.7481 106.167 21.5055C105.905 21.2628 105.565 21.1415 105.145 21.1415C104.809 21.1415 104.505 21.2395 104.235 21.4355C103.973 21.6221 103.782 21.8881 103.661 22.2335L101.883 21.7575C101.995 21.3935 102.153 21.0761 102.359 20.8055C102.564 20.5348 102.807 20.3155 103.087 20.1475C103.367 19.9701 103.675 19.8395 104.011 19.7555C104.347 19.6715 104.697 19.6295 105.061 19.6295C105.49 19.6295 105.896 19.6855 106.279 19.7975C106.661 19.9095 106.997 20.0775 107.287 20.3015C107.576 20.5161 107.805 20.7915 107.973 21.1275C108.15 21.4541 108.239 21.8368 108.239 22.2755C108.239 22.8075 108.089 23.2835 107.791 23.7035C107.492 24.1141 107.077 24.3848 106.545 24.5155V24.5435C107.179 24.6368 107.66 24.9075 107.987 25.3555C108.313 25.8035 108.477 26.3355 108.477 26.9515C108.477 27.4275 108.383 27.8475 108.197 28.2115C108.019 28.5755 107.777 28.8835 107.469 29.1355C107.161 29.3781 106.801 29.5648 106.391 29.6955C105.989 29.8168 105.569 29.8775 105.131 29.8775C104.72 29.8775 104.333 29.8308 103.969 29.7375C103.605 29.6535 103.273 29.5181 102.975 29.3315C102.685 29.1448 102.433 28.9068 102.219 28.6175C102.004 28.3188 101.841 27.9641 101.729 27.5535L103.521 27.0775C103.623 27.4881 103.805 27.8055 104.067 28.0295C104.328 28.2535 104.683 28.3655 105.131 28.3655C105.355 28.3655 105.565 28.3281 105.761 28.2535C105.966 28.1788 106.143 28.0761 106.293 27.9455C106.451 27.8055 106.573 27.6421 106.657 27.4555C106.75 27.2595 106.797 27.0448 106.797 26.8115C106.797 26.4941 106.727 26.2375 106.587 26.0415C106.456 25.8361 106.283 25.6821 106.069 25.5795C105.863 25.4675 105.63 25.3928 105.369 25.3555C105.107 25.3181 104.851 25.2995 104.599 25.2995H104.193V23.7875ZM114.056 24.8515C113.729 24.3941 113.29 24.1655 112.74 24.1655C112.516 24.1655 112.296 24.2215 112.082 24.3335C111.867 24.4455 111.76 24.6275 111.76 24.8795C111.76 25.0848 111.848 25.2341 112.026 25.3275C112.203 25.4208 112.427 25.5001 112.698 25.5655C112.968 25.6308 113.258 25.7008 113.566 25.7755C113.883 25.8408 114.177 25.9481 114.448 26.0975C114.718 26.2375 114.942 26.4335 115.12 26.6855C115.297 26.9375 115.386 27.2828 115.386 27.7215C115.386 28.1228 115.297 28.4635 115.12 28.7435C114.952 29.0141 114.728 29.2335 114.448 29.4015C114.177 29.5695 113.869 29.6908 113.524 29.7655C113.178 29.8401 112.833 29.8775 112.488 29.8775C111.965 29.8775 111.484 29.8028 111.046 29.6535C110.607 29.5041 110.215 29.2335 109.87 28.8415L110.99 27.7915C111.204 28.0341 111.433 28.2348 111.676 28.3935C111.928 28.5428 112.231 28.6175 112.586 28.6175C112.707 28.6175 112.833 28.6035 112.964 28.5755C113.094 28.5475 113.216 28.5008 113.328 28.4355C113.44 28.3701 113.528 28.2908 113.594 28.1975C113.668 28.0948 113.706 27.9781 113.706 27.8475C113.706 27.6141 113.617 27.4415 113.44 27.3295C113.262 27.2175 113.038 27.1288 112.768 27.0635C112.497 26.9888 112.203 26.9235 111.886 26.8675C111.578 26.8021 111.288 26.7041 111.018 26.5735C110.747 26.4335 110.523 26.2421 110.346 25.9995C110.168 25.7568 110.08 25.4208 110.08 24.9915C110.08 24.6181 110.154 24.2961 110.304 24.0255C110.462 23.7455 110.668 23.5168 110.92 23.3395C111.172 23.1621 111.461 23.0315 111.788 22.9475C112.114 22.8635 112.446 22.8215 112.782 22.8215C113.23 22.8215 113.673 22.9008 114.112 23.0595C114.55 23.2088 114.905 23.4701 115.176 23.8435L114.056 24.8515ZM121.289 19.7975H123.053V28.1135H127.267V29.7095H121.289V19.7975ZM129.889 26.9375C129.945 27.4415 130.141 27.8335 130.477 28.1135C130.813 28.3935 131.219 28.5335 131.695 28.5335C132.115 28.5335 132.465 28.4495 132.745 28.2815C133.034 28.1041 133.286 27.8848 133.501 27.6235L134.705 28.5335C134.313 29.0188 133.874 29.3641 133.389 29.5695C132.903 29.7748 132.395 29.8775 131.863 29.8775C131.359 29.8775 130.883 29.7935 130.435 29.6255C129.987 29.4575 129.599 29.2195 129.273 28.9115C128.946 28.6035 128.685 28.2348 128.489 27.8055C128.302 27.3668 128.209 26.8815 128.209 26.3495C128.209 25.8175 128.302 25.3368 128.489 24.9075C128.685 24.4688 128.946 24.0955 129.273 23.7875C129.599 23.4795 129.987 23.2415 130.435 23.0735C130.883 22.9055 131.359 22.8215 131.863 22.8215C132.329 22.8215 132.754 22.9055 133.137 23.0735C133.529 23.2321 133.86 23.4655 134.131 23.7735C134.411 24.0815 134.625 24.4641 134.775 24.9215C134.933 25.3695 135.013 25.8875 135.013 26.4755V26.9375H129.889ZM133.333 25.6775C133.323 25.1828 133.169 24.7955 132.871 24.5155C132.572 24.2261 132.157 24.0815 131.625 24.0815C131.121 24.0815 130.719 24.2261 130.421 24.5155C130.131 24.8048 129.954 25.1921 129.889 25.6775H133.333ZM140.934 28.7855H140.892C140.649 29.1681 140.341 29.4481 139.968 29.6255C139.595 29.7935 139.184 29.8775 138.736 29.8775C138.428 29.8775 138.125 29.8355 137.826 29.7515C137.537 29.6675 137.275 29.5415 137.042 29.3735C136.818 29.2055 136.636 28.9955 136.496 28.7435C136.356 28.4915 136.286 28.1975 136.286 27.8615C136.286 27.4975 136.351 27.1895 136.482 26.9375C136.613 26.6761 136.785 26.4615 137 26.2935C137.224 26.1161 137.481 25.9761 137.77 25.8735C138.059 25.7708 138.358 25.6961 138.666 25.6495C138.983 25.5935 139.301 25.5608 139.618 25.5515C139.935 25.5328 140.234 25.5235 140.514 25.5235H140.934V25.3415C140.934 24.9215 140.789 24.6088 140.5 24.4035C140.211 24.1888 139.842 24.0815 139.394 24.0815C139.039 24.0815 138.708 24.1468 138.4 24.2775C138.092 24.3988 137.826 24.5668 137.602 24.7815L136.72 23.8995C137.093 23.5168 137.527 23.2415 138.022 23.0735C138.526 22.9055 139.044 22.8215 139.576 22.8215C140.052 22.8215 140.453 22.8775 140.78 22.9895C141.107 23.0921 141.377 23.2275 141.592 23.3955C141.807 23.5635 141.97 23.7595 142.082 23.9835C142.203 24.1981 142.287 24.4175 142.334 24.6415C142.39 24.8655 142.423 25.0848 142.432 25.2995C142.441 25.5048 142.446 25.6868 142.446 25.8455V29.7095H140.934V28.7855ZM140.836 26.6995H140.486C140.253 26.6995 139.991 26.7088 139.702 26.7275C139.413 26.7461 139.137 26.7928 138.876 26.8675C138.624 26.9328 138.409 27.0355 138.232 27.1755C138.055 27.3061 137.966 27.4928 137.966 27.7355C137.966 27.8941 137.999 28.0295 138.064 28.1415C138.139 28.2441 138.232 28.3328 138.344 28.4075C138.456 28.4821 138.582 28.5381 138.722 28.5755C138.862 28.6035 139.002 28.6175 139.142 28.6175C139.721 28.6175 140.145 28.4821 140.416 28.2115C140.696 27.9315 140.836 27.5535 140.836 27.0775V26.6995ZM144.403 22.9895H146.083V24.0535H146.111C146.298 23.6615 146.564 23.3581 146.909 23.1435C147.255 22.9288 147.651 22.8215 148.099 22.8215C148.202 22.8215 148.3 22.8308 148.393 22.8495C148.496 22.8681 148.599 22.8915 148.701 22.9195V24.5435C148.561 24.5061 148.421 24.4781 148.281 24.4595C148.151 24.4315 148.02 24.4175 147.889 24.4175C147.497 24.4175 147.18 24.4921 146.937 24.6415C146.704 24.7815 146.522 24.9448 146.391 25.1315C146.27 25.3181 146.186 25.5048 146.139 25.6915C146.102 25.8781 146.083 26.0181 146.083 26.1115V29.7095H144.403V22.9895ZM150.241 22.9895H151.837V24.0675H151.865C152.024 23.7315 152.266 23.4421 152.593 23.1995C152.92 22.9475 153.363 22.8215 153.923 22.8215C154.371 22.8215 154.749 22.8961 155.057 23.0455C155.374 23.1948 155.631 23.3908 155.827 23.6335C156.023 23.8761 156.163 24.1561 156.247 24.4735C156.331 24.7908 156.373 25.1221 156.373 25.4675V29.7095H154.693V26.3075C154.693 26.1208 154.684 25.9155 154.665 25.6915C154.646 25.4581 154.595 25.2435 154.511 25.0475C154.436 24.8421 154.315 24.6741 154.147 24.5435C153.979 24.4035 153.75 24.3335 153.461 24.3335C153.181 24.3335 152.943 24.3801 152.747 24.4735C152.56 24.5668 152.402 24.6928 152.271 24.8515C152.15 25.0101 152.061 25.1921 152.005 25.3975C151.949 25.6028 151.921 25.8175 151.921 26.0415V29.7095H150.241V22.9895ZM158.458 22.9895H160.138V29.7095H158.458V22.9895ZM158.22 20.7075C158.22 20.4368 158.318 20.2035 158.514 20.0075C158.719 19.8021 158.976 19.6995 159.284 19.6995C159.592 19.6995 159.849 19.7975 160.054 19.9935C160.269 20.1801 160.376 20.4181 160.376 20.7075C160.376 20.9968 160.269 21.2395 160.054 21.4355C159.849 21.6221 159.592 21.7155 159.284 21.7155C158.976 21.7155 158.719 21.6175 158.514 21.4215C158.318 21.2161 158.22 20.9781 158.22 20.7075ZM162.217 22.9895H163.813V24.0675H163.841C163.999 23.7315 164.242 23.4421 164.569 23.1995C164.895 22.9475 165.339 22.8215 165.899 22.8215C166.347 22.8215 166.725 22.8961 167.033 23.0455C167.35 23.1948 167.607 23.3908 167.803 23.6335C167.999 23.8761 168.139 24.1561 168.223 24.4735C168.307 24.7908 168.349 25.1221 168.349 25.4675V29.7095H166.669V26.3075C166.669 26.1208 166.659 25.9155 166.641 25.6915C166.622 25.4581 166.571 25.2435 166.487 25.0475C166.412 24.8421 166.291 24.6741 166.123 24.5435C165.955 24.4035 165.726 24.3335 165.437 24.3335C165.157 24.3335 164.919 24.3801 164.723 24.4735C164.536 24.5668 164.377 24.6928 164.247 24.8515C164.125 25.0101 164.037 25.1921 163.981 25.3975C163.925 25.6028 163.897 25.8175 163.897 26.0415V29.7095H162.217V22.9895ZM177.322 22.9895V29.1075C177.322 29.7141 177.247 30.2601 177.098 30.7455C176.948 31.2401 176.715 31.6555 176.398 31.9915C176.09 32.3368 175.698 32.6028 175.222 32.7895C174.746 32.9761 174.181 33.0695 173.528 33.0695C172.902 33.0695 172.31 32.9901 171.75 32.8315C171.19 32.6728 170.672 32.3835 170.196 31.9635L171.204 30.5915C171.54 30.8995 171.89 31.1375 172.254 31.3055C172.618 31.4735 173.038 31.5575 173.514 31.5575C173.915 31.5575 174.251 31.5015 174.522 31.3895C174.802 31.2775 175.021 31.1235 175.18 30.9275C175.348 30.7315 175.464 30.4935 175.53 30.2135C175.604 29.9428 175.642 29.6395 175.642 29.3035V28.8135H175.614C175.371 29.1401 175.049 29.3875 174.648 29.5555C174.246 29.7141 173.836 29.7935 173.416 29.7935C172.912 29.7935 172.454 29.7048 172.044 29.5275C171.633 29.3408 171.278 29.0935 170.98 28.7855C170.69 28.4775 170.466 28.1135 170.308 27.6935C170.149 27.2735 170.07 26.8255 170.07 26.3495C170.07 25.8548 170.144 25.3928 170.294 24.9635C170.443 24.5341 170.662 24.1608 170.952 23.8435C171.241 23.5261 171.586 23.2788 171.988 23.1015C172.398 22.9148 172.865 22.8215 173.388 22.8215C173.864 22.8215 174.307 22.9148 174.718 23.1015C175.128 23.2881 175.455 23.5868 175.698 23.9975H175.726V22.9895H177.322ZM173.738 24.3335C173.439 24.3335 173.168 24.3848 172.926 24.4875C172.683 24.5808 172.473 24.7161 172.296 24.8935C172.128 25.0615 171.992 25.2715 171.89 25.5235C171.796 25.7661 171.75 26.0368 171.75 26.3355C171.75 26.6061 171.796 26.8581 171.89 27.0915C171.992 27.3248 172.132 27.5301 172.31 27.7075C172.487 27.8848 172.697 28.0248 172.94 28.1275C173.182 28.2301 173.444 28.2815 173.724 28.2815C174.032 28.2815 174.307 28.2301 174.55 28.1275C174.802 28.0248 175.012 27.8895 175.18 27.7215C175.357 27.5441 175.492 27.3341 175.586 27.0915C175.679 26.8488 175.726 26.5875 175.726 26.3075C175.726 25.7195 175.548 25.2435 175.194 24.8795C174.839 24.5155 174.354 24.3335 173.738 24.3335ZM190.625 22.1215C190.261 21.7295 189.906 21.4681 189.561 21.3375C189.225 21.2068 188.884 21.1415 188.539 21.1415C188.025 21.1415 187.559 21.2348 187.139 21.4215C186.728 21.5988 186.373 21.8508 186.075 22.1775C185.776 22.4948 185.543 22.8681 185.375 23.2975C185.216 23.7268 185.137 24.1888 185.137 24.6835C185.137 25.2155 185.216 25.7055 185.375 26.1535C185.543 26.6015 185.776 26.9888 186.075 27.3155C186.373 27.6421 186.728 27.8988 187.139 28.0855C187.559 28.2721 188.025 28.3655 188.539 28.3655C188.94 28.3655 189.327 28.2721 189.701 28.0855C190.083 27.8895 190.438 27.5815 190.765 27.1615L192.221 28.1975C191.773 28.8135 191.227 29.2615 190.583 29.5415C189.939 29.8215 189.253 29.9615 188.525 29.9615C187.759 29.9615 187.055 29.8401 186.411 29.5975C185.776 29.3455 185.225 28.9955 184.759 28.5475C184.301 28.0901 183.942 27.5441 183.681 26.9095C183.419 26.2748 183.289 25.5701 183.289 24.7955C183.289 24.0021 183.419 23.2835 183.681 22.6395C183.942 21.9861 184.301 21.4308 184.759 20.9735C185.225 20.5161 185.776 20.1661 186.411 19.9235C187.055 19.6715 187.759 19.5455 188.525 19.5455C189.197 19.5455 189.817 19.6668 190.387 19.9095C190.965 20.1428 191.502 20.5441 191.997 21.1135L190.625 22.1215ZM194.745 26.9375C194.801 27.4415 194.997 27.8335 195.333 28.1135C195.669 28.3935 196.075 28.5335 196.551 28.5335C196.971 28.5335 197.321 28.4495 197.601 28.2815C197.89 28.1041 198.142 27.8848 198.357 27.6235L199.561 28.5335C199.169 29.0188 198.73 29.3641 198.245 29.5695C197.759 29.7748 197.251 29.8775 196.719 29.8775C196.215 29.8775 195.739 29.7935 195.291 29.6255C194.843 29.4575 194.455 29.2195 194.129 28.9115C193.802 28.6035 193.541 28.2348 193.345 27.8055C193.158 27.3668 193.065 26.8815 193.065 26.3495C193.065 25.8175 193.158 25.3368 193.345 24.9075C193.541 24.4688 193.802 24.0955 194.129 23.7875C194.455 23.4795 194.843 23.2415 195.291 23.0735C195.739 22.9055 196.215 22.8215 196.719 22.8215C197.185 22.8215 197.61 22.9055 197.993 23.0735C198.385 23.2321 198.716 23.4655 198.987 23.7735C199.267 24.0815 199.481 24.4641 199.631 24.9215C199.789 25.3695 199.869 25.8875 199.869 26.4755V26.9375H194.745ZM198.189 25.6775C198.179 25.1828 198.025 24.7955 197.727 24.5155C197.428 24.2261 197.013 24.0815 196.481 24.0815C195.977 24.0815 195.575 24.2261 195.277 24.5155C194.987 24.8048 194.81 25.1921 194.745 25.6775H198.189ZM201.59 22.9895H203.186V24.0675H203.214C203.372 23.7315 203.615 23.4421 203.942 23.1995C204.268 22.9475 204.712 22.8215 205.272 22.8215C205.72 22.8215 206.098 22.8961 206.406 23.0455C206.723 23.1948 206.98 23.3908 207.176 23.6335C207.372 23.8761 207.512 24.1561 207.596 24.4735C207.68 24.7908 207.722 25.1221 207.722 25.4675V29.7095H206.042V26.3075C206.042 26.1208 206.032 25.9155 206.014 25.6915C205.995 25.4581 205.944 25.2435 205.86 25.0475C205.785 24.8421 205.664 24.6741 205.496 24.5435C205.328 24.4035 205.099 24.3335 204.81 24.3335C204.53 24.3335 204.292 24.3801 204.096 24.4735C203.909 24.5668 203.75 24.6928 203.62 24.8515C203.498 25.0101 203.41 25.1921 203.354 25.3975C203.298 25.6028 203.27 25.8175 203.27 26.0415V29.7095H201.59V22.9895ZM208.995 24.4175V22.9895H210.381V21.0435H212.061V22.9895H213.909V24.4175H212.061V27.3575C212.061 27.6935 212.121 27.9595 212.243 28.1555C212.373 28.3515 212.625 28.4495 212.999 28.4495C213.148 28.4495 213.311 28.4355 213.489 28.4075C213.666 28.3701 213.806 28.3141 213.909 28.2395V29.6535C213.731 29.7375 213.512 29.7935 213.251 29.8215C212.999 29.8588 212.775 29.8775 212.579 29.8775C212.131 29.8775 211.762 29.8261 211.473 29.7235C211.193 29.6301 210.969 29.4855 210.801 29.2895C210.642 29.0841 210.53 28.8321 210.465 28.5335C210.409 28.2348 210.381 27.8895 210.381 27.4975V24.4175H208.995ZM216.714 26.9375C216.77 27.4415 216.966 27.8335 217.302 28.1135C217.638 28.3935 218.044 28.5335 218.52 28.5335C218.94 28.5335 219.29 28.4495 219.57 28.2815C219.86 28.1041 220.112 27.8848 220.326 27.6235L221.53 28.5335C221.138 29.0188 220.7 29.3641 220.214 29.5695C219.729 29.7748 219.22 29.8775 218.688 29.8775C218.184 29.8775 217.708 29.7935 217.26 29.6255C216.812 29.4575 216.425 29.2195 216.098 28.9115C215.772 28.6035 215.51 28.2348 215.314 27.8055C215.128 27.3668 215.034 26.8815 215.034 26.3495C215.034 25.8175 215.128 25.3368 215.314 24.9075C215.51 24.4688 215.772 24.0955 216.098 23.7875C216.425 23.4795 216.812 23.2415 217.26 23.0735C217.708 22.9055 218.184 22.8215 218.688 22.8215C219.155 22.8215 219.58 22.9055 219.962 23.0735C220.354 23.2321 220.686 23.4655 220.956 23.7735C221.236 24.0815 221.451 24.4641 221.6 24.9215C221.759 25.3695 221.838 25.8875 221.838 26.4755V26.9375H216.714ZM220.158 25.6775C220.149 25.1828 219.995 24.7955 219.696 24.5155C219.398 24.2261 218.982 24.0815 218.45 24.0815C217.946 24.0815 217.545 24.2261 217.246 24.5155C216.957 24.8048 216.78 25.1921 216.714 25.6775H220.158ZM223.559 22.9895H225.239V24.0535H225.267C225.454 23.6615 225.72 23.3581 226.065 23.1435C226.411 22.9288 226.807 22.8215 227.255 22.8215C227.358 22.8215 227.456 22.8308 227.549 22.8495C227.652 22.8681 227.755 22.8915 227.857 22.9195V24.5435C227.717 24.5061 227.577 24.4781 227.437 24.4595C227.307 24.4315 227.176 24.4175 227.045 24.4175C226.653 24.4175 226.336 24.4921 226.093 24.6415C225.86 24.7815 225.678 24.9448 225.547 25.1315C225.426 25.3181 225.342 25.5048 225.295 25.6915C225.258 25.8781 225.239 26.0181 225.239 26.1115V29.7095H223.559V22.9895Z" fill="#1D1D1D"/>
<rect x="15.2161" y="37.0122" width="336" height="24" rx="5" fill="#EEF0F1"/>
<path d="M493.344 33.9652L492.02 32.652C487.319 28.006 484.216 24.9418 484.216 21.1812C484.216 18.117 486.425 15.7095 489.236 15.7095C490.824 15.7095 492.349 16.5153 493.344 17.7887C494.339 16.5153 495.863 15.7095 497.451 15.7095C500.263 15.7095 502.472 18.117 502.472 21.1812C502.472 24.9418 499.368 28.006 494.667 32.6619L493.344 33.9652Z" fill="#435CA5"/>
<rect x="30.4319" y="68.6201" width="232" height="16" rx="4" fill="#EEF0F1"/>
<rect x="30.4319" y="86.6201" width="249" height="16" rx="4" fill="#EEF0F1"/>
<rect x="30.4319" y="104.62" width="261" height="16" rx="4" fill="#EEF0F1"/>
<rect x="30.4319" y="122.62" width="232" height="16" rx="4" fill="#EEF0F1"/>
<rect x="30.4319" y="140.62" width="245" height="16" rx="4" fill="#EEF0F1"/>
</svg>
