<svg width="438" height="333" viewBox="0 0 438 333" fill="none" xmlns="http://www.w3.org/2000/svg">
<rect y="0.493164" width="437.365" height="332" rx="2.65455" fill="white"/>
<path fill-rule="evenodd" clip-rule="evenodd" d="M29.8205 93.9302H39.0979C39.8269 93.9302 40.4233 94.5266 40.4233 95.2555V104.533C40.4233 105.262 39.8269 105.858 39.0979 105.858H29.8205C29.0915 105.858 28.4951 105.262 28.4951 104.533V95.2555C28.4951 94.5266 29.0915 93.9302 29.8205 93.9302ZM39.0979 104.533V95.2555H29.8205V104.533H39.0979Z" fill="black" fill-opacity="0.38"/>
<path d="M52.1402 169.401C51.5668 169.401 51.0394 169.302 50.5581 169.104C50.0838 168.906 49.6697 168.633 49.3157 168.286C48.9689 167.932 48.6964 167.515 48.4981 167.033C48.307 166.545 48.2115 166.017 48.2115 165.451C48.2115 164.885 48.307 164.361 48.4981 163.88C48.6964 163.391 48.9689 162.974 49.3157 162.627C49.6697 162.273 50.0838 161.997 50.5581 161.798C51.0394 161.6 51.5668 161.501 52.1402 161.501C52.7136 161.501 53.2374 161.6 53.7117 161.798C54.193 161.997 54.6071 162.273 54.954 162.627C55.3079 162.974 55.5805 163.391 55.7716 163.88C55.9698 164.361 56.0689 164.885 56.0689 165.451C56.0689 166.017 55.9698 166.545 55.7716 167.033C55.5805 167.515 55.3079 167.932 54.954 168.286C54.6071 168.633 54.193 168.906 53.7117 169.104C53.2374 169.302 52.7136 169.401 52.1402 169.401ZM52.1402 168.573C52.5791 168.573 52.979 168.491 53.34 168.329C53.7081 168.166 54.0231 167.943 54.2851 167.66C54.547 167.377 54.7487 167.047 54.8903 166.672C55.0389 166.29 55.1133 165.883 55.1133 165.451C55.1133 165.019 55.0389 164.616 54.8903 164.241C54.7487 163.858 54.547 163.526 54.2851 163.243C54.0231 162.959 53.7081 162.736 53.34 162.574C52.979 162.411 52.5791 162.329 52.1402 162.329C51.7013 162.329 51.2978 162.411 50.9297 162.574C50.5687 162.736 50.2572 162.959 49.9953 163.243C49.7334 163.526 49.5281 163.858 49.3795 164.241C49.2379 164.616 49.1671 165.019 49.1671 165.451C49.1671 165.883 49.2379 166.29 49.3795 166.672C49.5281 167.047 49.7334 167.377 49.9953 167.66C50.2572 167.943 50.5687 168.166 50.9297 168.329C51.2978 168.491 51.7013 168.573 52.1402 168.573ZM57.4531 165.419C57.4531 165.193 57.446 164.98 57.4319 164.782C57.4177 164.584 57.4106 164.403 57.4106 164.241H58.1964C58.1964 164.375 58.1999 164.51 58.207 164.644C58.2141 164.779 58.2176 164.917 58.2176 165.058H58.2388C58.2955 164.938 58.3733 164.821 58.4724 164.708C58.5786 164.595 58.7025 164.495 58.8441 164.411C58.9856 164.319 59.1449 164.248 59.3219 164.198C59.4989 164.142 59.69 164.113 59.8953 164.113C60.2209 164.113 60.5005 164.163 60.7341 164.262C60.9748 164.361 61.173 164.499 61.3287 164.676C61.4845 164.853 61.5977 165.069 61.6685 165.324C61.7464 165.571 61.7853 165.844 61.7853 166.141V169.21H60.9571V166.226C60.9571 165.809 60.8651 165.479 60.681 165.239C60.497 164.998 60.2103 164.878 59.8209 164.878C59.552 164.878 59.3184 164.924 59.1201 165.016C58.929 165.108 58.7697 165.239 58.6423 165.409C58.522 165.579 58.43 165.78 58.3663 166.014C58.3096 166.247 58.2813 166.506 58.2813 166.789V169.21H57.4531V165.419ZM63.5271 161.183H64.3553V169.21H63.5271V161.183ZM67.9295 170.346C67.8446 170.558 67.7561 170.75 67.664 170.919C67.5791 171.096 67.4729 171.245 67.3455 171.365C67.2252 171.493 67.0765 171.588 66.8995 171.652C66.7296 171.723 66.5208 171.758 66.2731 171.758C66.1527 171.758 66.0253 171.751 65.8908 171.737C65.7634 171.723 65.6431 171.688 65.5298 171.631L65.636 170.909C65.7209 170.944 65.8094 170.966 65.9014 170.973C65.9935 170.987 66.0996 170.994 66.22 170.994C66.489 170.994 66.6872 170.919 66.8146 170.771C66.942 170.622 67.0517 170.424 67.1438 170.176L67.4835 169.242L65.4236 164.241H66.3899L67.9295 168.138H67.9507L69.4267 164.241H70.3292L67.9295 170.346ZM74.4861 167.904C74.649 168.109 74.8259 168.272 75.0171 168.392C75.2153 168.513 75.463 168.573 75.7603 168.573C75.8877 168.573 76.0152 168.559 76.1426 168.53C76.2771 168.502 76.3974 168.456 76.5036 168.392C76.6098 168.329 76.6947 168.251 76.7584 168.159C76.8221 168.06 76.854 167.943 76.854 167.808C76.854 167.674 76.8221 167.564 76.7584 167.479C76.7018 167.394 76.6239 167.323 76.5248 167.267C76.4257 167.203 76.3125 167.154 76.1851 167.118C76.0576 167.083 75.9267 167.051 75.7922 167.023C75.5586 166.973 75.3356 166.916 75.1232 166.853C74.9109 166.789 74.7233 166.708 74.5605 166.609C74.4047 166.502 74.2773 166.368 74.1782 166.205C74.0862 166.042 74.0402 165.833 74.0402 165.579C74.0402 165.338 74.0933 165.126 74.1995 164.941C74.3056 164.757 74.4472 164.605 74.6242 164.485C74.8012 164.365 74.9994 164.273 75.2188 164.209C75.4382 164.145 75.6648 164.113 75.8984 164.113C76.2523 164.113 76.5779 164.184 76.8752 164.326C77.1796 164.467 77.4168 164.697 77.5867 165.016L76.8965 165.472C76.7903 165.295 76.6487 165.154 76.4717 165.048C76.3019 164.934 76.093 164.878 75.8453 164.878C75.732 164.878 75.6152 164.892 75.4949 164.92C75.3816 164.949 75.279 164.991 75.1869 165.048C75.0949 165.104 75.0171 165.179 74.9533 165.271C74.8967 165.356 74.8684 165.455 74.8684 165.568C74.8684 165.674 74.9003 165.766 74.964 165.844C75.0348 165.915 75.1268 165.978 75.24 166.035C75.3604 166.092 75.4949 166.141 75.6435 166.184C75.7993 166.226 75.9585 166.262 76.1213 166.29C76.3408 166.332 76.5496 166.389 76.7478 166.46C76.946 166.524 77.1195 166.612 77.2681 166.725C77.4168 166.839 77.5336 166.98 77.6185 167.15C77.7035 167.32 77.7459 167.529 77.7459 167.777C77.7459 168.06 77.6893 168.3 77.576 168.499C77.4628 168.697 77.3106 168.86 77.1195 168.987C76.9354 169.107 76.723 169.196 76.4824 169.252C76.2488 169.309 76.0081 169.337 75.7603 169.337C75.3356 169.337 74.9675 169.274 74.656 169.146C74.3516 169.012 74.0756 168.768 73.8278 168.414L74.4861 167.904ZM79.0005 161.183H79.8288V164.931H79.85C79.9066 164.832 79.9845 164.736 80.0836 164.644C80.1827 164.545 80.2995 164.457 80.434 164.379C80.5756 164.301 80.7313 164.237 80.9012 164.188C81.0711 164.138 81.2516 164.113 81.4427 164.113C81.7683 164.113 82.048 164.163 82.2816 164.262C82.5222 164.361 82.7204 164.499 82.8762 164.676C83.0319 164.853 83.1452 165.069 83.216 165.324C83.2938 165.571 83.3328 165.844 83.3328 166.141V169.21H82.5045V166.226C82.5045 165.809 82.4125 165.479 82.2285 165.239C82.0444 164.998 81.7577 164.878 81.3684 164.878C81.0994 164.878 80.8658 164.924 80.6676 165.016C80.4765 165.108 80.3172 165.239 80.1898 165.409C80.0694 165.579 79.9774 165.78 79.9137 166.014C79.8571 166.247 79.8288 166.506 79.8288 166.789V169.21H79.0005V161.183ZM84.7135 166.725C84.7135 166.336 84.7808 165.982 84.9153 165.663C85.0498 165.345 85.2338 165.072 85.4674 164.846C85.701 164.612 85.9806 164.432 86.3063 164.304C86.6319 164.177 86.9858 164.113 87.3681 164.113C87.7503 164.113 88.1043 164.177 88.4299 164.304C88.7555 164.432 89.0351 164.612 89.2687 164.846C89.5023 165.072 89.6864 165.345 89.8209 165.663C89.9554 165.982 90.0226 166.336 90.0226 166.725C90.0226 167.115 89.9554 167.469 89.8209 167.787C89.6864 168.106 89.5023 168.382 89.2687 168.615C89.0351 168.842 88.7555 169.019 88.4299 169.146C88.1043 169.274 87.7503 169.337 87.3681 169.337C86.9858 169.337 86.6319 169.274 86.3063 169.146C85.9806 169.019 85.701 168.842 85.4674 168.615C85.2338 168.382 85.0498 168.106 84.9153 167.787C84.7808 167.469 84.7135 167.115 84.7135 166.725ZM85.6055 166.725C85.6055 166.987 85.6444 167.231 85.7223 167.458C85.8072 167.677 85.9275 167.872 86.0833 168.042C86.239 168.205 86.4231 168.336 86.6354 168.435C86.8549 168.527 87.0991 168.573 87.3681 168.573C87.6371 168.573 87.8777 168.527 88.0901 168.435C88.3096 168.336 88.4971 168.205 88.6529 168.042C88.8086 167.872 88.9254 167.677 89.0033 167.458C89.0882 167.231 89.1307 166.987 89.1307 166.725C89.1307 166.463 89.0882 166.223 89.0033 166.003C88.9254 165.777 88.8086 165.582 88.6529 165.419C88.4971 165.249 88.3096 165.118 88.0901 165.026C87.8777 164.927 87.6371 164.878 87.3681 164.878C87.0991 164.878 86.8549 164.927 86.6354 165.026C86.4231 165.118 86.239 165.249 86.0833 165.419C85.9275 165.582 85.8072 165.777 85.7223 166.003C85.6444 166.223 85.6055 166.463 85.6055 166.725ZM96.7346 169.21H95.917L94.5048 165.387H94.4836L93.2306 169.21H92.3812L90.7672 164.241H91.6804L92.8165 168.063H92.8378L94.1226 164.241H94.9933L96.2993 168.063H96.3205L97.4461 164.241H98.338L96.7346 169.21ZM102.386 164.241H103.215V164.963H103.236C103.462 164.694 103.724 164.485 104.022 164.336C104.326 164.188 104.659 164.113 105.02 164.113C105.409 164.113 105.763 164.18 106.082 164.315C106.407 164.442 106.683 164.623 106.91 164.857C107.136 165.09 107.313 165.366 107.441 165.685C107.568 166.003 107.632 166.35 107.632 166.725C107.632 167.1 107.568 167.447 107.441 167.766C107.313 168.084 107.136 168.361 106.91 168.594C106.69 168.828 106.428 169.012 106.124 169.146C105.82 169.274 105.494 169.337 105.147 169.337C104.701 169.337 104.308 169.242 103.969 169.051C103.636 168.852 103.392 168.612 103.236 168.329H103.215V171.631H102.386V164.241ZM103.215 166.725C103.215 166.987 103.254 167.231 103.332 167.458C103.416 167.677 103.537 167.872 103.693 168.042C103.848 168.205 104.032 168.336 104.245 168.435C104.464 168.527 104.708 168.573 104.977 168.573C105.246 168.573 105.487 168.527 105.699 168.435C105.919 168.336 106.106 168.205 106.262 168.042C106.418 167.872 106.535 167.677 106.613 167.458C106.697 167.231 106.74 166.987 106.74 166.725C106.74 166.463 106.697 166.223 106.613 166.003C106.535 165.777 106.418 165.582 106.262 165.419C106.106 165.249 105.919 165.118 105.699 165.026C105.487 164.927 105.246 164.878 104.977 164.878C104.708 164.878 104.464 164.927 104.245 165.026C104.032 165.118 103.848 165.249 103.693 165.419C103.537 165.582 103.416 165.777 103.332 166.003C103.254 166.223 103.215 166.463 103.215 166.725ZM109.02 165.419C109.02 165.193 109.013 164.98 108.998 164.782C108.984 164.584 108.977 164.403 108.977 164.241H109.763C109.763 164.375 109.767 164.51 109.774 164.644C109.781 164.779 109.784 164.917 109.784 165.058H109.805C109.862 164.938 109.94 164.821 110.039 164.708C110.145 164.595 110.269 164.495 110.411 164.411C110.552 164.319 110.712 164.248 110.889 164.198C111.065 164.142 111.257 164.113 111.462 164.113C111.519 164.113 111.575 164.117 111.632 164.124C111.688 164.131 111.745 164.145 111.802 164.166L111.749 165.005C111.607 164.963 111.458 164.941 111.303 164.941C110.793 164.941 110.421 165.108 110.188 165.441C109.961 165.766 109.848 166.216 109.848 166.789V169.21H109.02V165.419ZM112.379 166.725C112.379 166.336 112.446 165.982 112.581 165.663C112.715 165.345 112.899 165.072 113.133 164.846C113.366 164.612 113.646 164.432 113.972 164.304C114.297 164.177 114.651 164.113 115.033 164.113C115.416 164.113 115.77 164.177 116.095 164.304C116.421 164.432 116.7 164.612 116.934 164.846C117.168 165.072 117.352 165.345 117.486 165.663C117.621 165.982 117.688 166.336 117.688 166.725C117.688 167.115 117.621 167.469 117.486 167.787C117.352 168.106 117.168 168.382 116.934 168.615C116.7 168.842 116.421 169.019 116.095 169.146C115.77 169.274 115.416 169.337 115.033 169.337C114.651 169.337 114.297 169.274 113.972 169.146C113.646 169.019 113.366 168.842 113.133 168.615C112.899 168.382 112.715 168.106 112.581 167.787C112.446 167.469 112.379 167.115 112.379 166.725ZM113.271 166.725C113.271 166.987 113.31 167.231 113.388 167.458C113.473 167.677 113.593 167.872 113.749 168.042C113.904 168.205 114.088 168.336 114.301 168.435C114.52 168.527 114.764 168.573 115.033 168.573C115.302 168.573 115.543 168.527 115.755 168.435C115.975 168.336 116.162 168.205 116.318 168.042C116.474 167.872 116.591 167.677 116.669 167.458C116.754 167.231 116.796 166.987 116.796 166.725C116.796 166.463 116.754 166.223 116.669 166.003C116.591 165.777 116.474 165.582 116.318 165.419C116.162 165.249 115.975 165.118 115.755 165.026C115.543 164.927 115.302 164.878 115.033 164.878C114.764 164.878 114.52 164.927 114.301 165.026C114.088 165.118 113.904 165.249 113.749 165.419C113.593 165.582 113.473 165.777 113.388 166.003C113.31 166.223 113.271 166.463 113.271 166.725ZM121.331 169.21H120.418L118.39 164.241H119.356L120.907 168.138H120.928L122.404 164.241H123.296L121.331 169.21ZM124.366 164.241H125.194V169.21H124.366V164.241ZM124.175 162.298C124.175 162.135 124.231 161.993 124.345 161.873C124.465 161.752 124.61 161.692 124.78 161.692C124.95 161.692 125.092 161.752 125.205 161.873C125.325 161.993 125.385 162.135 125.385 162.298C125.385 162.474 125.329 162.62 125.215 162.733C125.102 162.846 124.957 162.903 124.78 162.903C124.603 162.903 124.458 162.846 124.345 162.733C124.231 162.62 124.175 162.474 124.175 162.298ZM131.073 168.329H131.051C130.896 168.612 130.648 168.852 130.308 169.051C129.975 169.242 129.586 169.337 129.14 169.337C128.793 169.337 128.468 169.274 128.163 169.146C127.859 169.012 127.593 168.828 127.367 168.594C127.147 168.361 126.974 168.084 126.846 167.766C126.719 167.447 126.655 167.1 126.655 166.725C126.655 166.35 126.719 166.003 126.846 165.685C126.974 165.366 127.151 165.09 127.377 164.857C127.604 164.623 127.876 164.442 128.195 164.315C128.521 164.18 128.878 164.113 129.267 164.113C129.628 164.113 129.958 164.188 130.255 164.336C130.559 164.485 130.825 164.694 131.051 164.963H131.073V161.183H131.901V169.21H131.073V168.329ZM131.073 166.725C131.073 166.463 131.03 166.223 130.945 166.003C130.867 165.777 130.75 165.582 130.595 165.419C130.439 165.249 130.251 165.118 130.032 165.026C129.82 164.927 129.579 164.878 129.31 164.878C129.041 164.878 128.797 164.927 128.577 165.026C128.365 165.118 128.181 165.249 128.025 165.419C127.869 165.582 127.749 165.777 127.664 166.003C127.586 166.223 127.547 166.463 127.547 166.725C127.547 166.987 127.586 167.231 127.664 167.458C127.749 167.677 127.869 167.872 128.025 168.042C128.181 168.205 128.365 168.336 128.577 168.435C128.797 168.527 129.041 168.573 129.31 168.573C129.579 168.573 129.82 168.527 130.032 168.435C130.251 168.336 130.439 168.205 130.595 168.042C130.75 167.872 130.867 167.677 130.945 167.458C131.03 167.231 131.073 166.987 131.073 166.725ZM137.971 168.307C137.674 168.69 137.348 168.959 136.994 169.114C136.64 169.263 136.23 169.337 135.763 169.337C135.373 169.337 135.023 169.27 134.711 169.136C134.4 168.994 134.134 168.806 133.915 168.573C133.703 168.339 133.536 168.063 133.416 167.745C133.303 167.426 133.246 167.086 133.246 166.725C133.246 166.343 133.31 165.993 133.437 165.674C133.565 165.348 133.742 165.072 133.968 164.846C134.195 164.612 134.464 164.432 134.775 164.304C135.087 164.177 135.426 164.113 135.794 164.113C136.141 164.113 136.46 164.173 136.75 164.294C137.04 164.407 137.288 164.577 137.493 164.803C137.706 165.023 137.869 165.295 137.982 165.621C138.095 165.94 138.152 166.304 138.152 166.715V166.98H134.138C134.152 167.193 134.202 167.398 134.287 167.596C134.379 167.787 134.495 167.957 134.637 168.106C134.779 168.247 134.945 168.361 135.136 168.445C135.327 168.53 135.536 168.573 135.763 168.573C136.124 168.573 136.428 168.509 136.676 168.382C136.924 168.254 137.146 168.067 137.345 167.819L137.971 168.307ZM137.26 166.279C137.246 165.855 137.108 165.515 136.846 165.26C136.584 165.005 136.223 164.878 135.763 164.878C135.302 164.878 134.931 165.005 134.648 165.26C134.365 165.515 134.195 165.855 134.138 166.279H137.26ZM139.532 165.419C139.532 165.193 139.525 164.98 139.511 164.782C139.497 164.584 139.49 164.403 139.49 164.241H140.276C140.276 164.375 140.279 164.51 140.286 164.644C140.293 164.779 140.297 164.917 140.297 165.058H140.318C140.375 164.938 140.453 164.821 140.552 164.708C140.658 164.595 140.782 164.495 140.923 164.411C141.065 164.319 141.224 164.248 141.401 164.198C141.578 164.142 141.769 164.113 141.975 164.113C142.031 164.113 142.088 164.117 142.145 164.124C142.201 164.131 142.258 164.145 142.314 164.166L142.261 165.005C142.12 164.963 141.971 164.941 141.815 164.941C141.306 164.941 140.934 165.108 140.7 165.441C140.474 165.766 140.361 166.216 140.361 166.789V169.21H139.532V165.419ZM143.471 167.904C143.634 168.109 143.811 168.272 144.002 168.392C144.2 168.513 144.448 168.573 144.745 168.573C144.873 168.573 145 168.559 145.128 168.53C145.262 168.502 145.382 168.456 145.489 168.392C145.595 168.329 145.68 168.251 145.743 168.159C145.807 168.06 145.839 167.943 145.839 167.808C145.839 167.674 145.807 167.564 145.743 167.479C145.687 167.394 145.609 167.323 145.51 167.267C145.411 167.203 145.297 167.154 145.17 167.118C145.043 167.083 144.912 167.051 144.777 167.023C144.544 166.973 144.321 166.916 144.108 166.853C143.896 166.789 143.708 166.708 143.545 166.609C143.39 166.502 143.262 166.368 143.163 166.205C143.071 166.042 143.025 165.833 143.025 165.579C143.025 165.338 143.078 165.126 143.184 164.941C143.291 164.757 143.432 164.605 143.609 164.485C143.786 164.365 143.984 164.273 144.204 164.209C144.423 164.145 144.65 164.113 144.883 164.113C145.237 164.113 145.563 164.184 145.86 164.326C146.165 164.467 146.402 164.697 146.572 165.016L145.881 165.472C145.775 165.295 145.634 165.154 145.457 165.048C145.287 164.934 145.078 164.878 144.83 164.878C144.717 164.878 144.6 164.892 144.48 164.92C144.367 164.949 144.264 164.991 144.172 165.048C144.08 165.104 144.002 165.179 143.938 165.271C143.882 165.356 143.853 165.455 143.853 165.568C143.853 165.674 143.885 165.766 143.949 165.844C144.02 165.915 144.112 165.978 144.225 166.035C144.345 166.092 144.48 166.141 144.629 166.184C144.784 166.226 144.944 166.262 145.106 166.29C145.326 166.332 145.535 166.389 145.733 166.46C145.931 166.524 146.104 166.612 146.253 166.725C146.402 166.839 146.519 166.98 146.604 167.15C146.688 167.32 146.731 167.529 146.731 167.777C146.731 168.06 146.674 168.3 146.561 168.499C146.448 168.697 146.296 168.86 146.104 168.987C145.92 169.107 145.708 169.196 145.467 169.252C145.234 169.309 144.993 169.337 144.745 169.337C144.321 169.337 143.953 169.274 143.641 169.146C143.337 169.012 143.061 168.768 142.813 168.414L143.471 167.904ZM153.759 164.941H152.293V167.426C152.293 167.589 152.297 167.741 152.304 167.883C152.311 168.017 152.339 168.138 152.389 168.244C152.438 168.343 152.513 168.424 152.612 168.488C152.711 168.545 152.853 168.573 153.037 168.573C153.157 168.573 153.281 168.559 153.408 168.53C153.536 168.502 153.656 168.46 153.769 168.403L153.801 169.157C153.659 169.221 153.5 169.267 153.323 169.295C153.153 169.323 152.991 169.337 152.835 169.337C152.537 169.337 152.3 169.298 152.123 169.221C151.946 169.143 151.808 169.033 151.709 168.891C151.61 168.75 151.543 168.576 151.508 168.371C151.479 168.159 151.465 167.925 151.465 167.67V164.941H150.382V164.241H151.465V162.828H152.293V164.241H153.759V164.941ZM154.883 161.183H155.711V164.931H155.733C155.789 164.832 155.867 164.736 155.966 164.644C156.065 164.545 156.182 164.457 156.317 164.379C156.458 164.301 156.614 164.237 156.784 164.188C156.954 164.138 157.134 164.113 157.325 164.113C157.651 164.113 157.931 164.163 158.164 164.262C158.405 164.361 158.603 164.499 158.759 164.676C158.915 164.853 159.028 165.069 159.099 165.324C159.176 165.571 159.215 165.844 159.215 166.141V169.21H158.387V166.226C158.387 165.809 158.295 165.479 158.111 165.239C157.927 164.998 157.64 164.878 157.251 164.878C156.982 164.878 156.748 164.924 156.55 165.016C156.359 165.108 156.2 165.239 156.072 165.409C155.952 165.579 155.86 165.78 155.796 166.014C155.74 166.247 155.711 166.506 155.711 166.789V169.21H154.883V161.183ZM160.819 164.878C161.074 164.616 161.375 164.425 161.722 164.304C162.076 164.177 162.433 164.113 162.794 164.113C163.53 164.113 164.061 164.287 164.387 164.634C164.713 164.98 164.875 165.508 164.875 166.216V168.35C164.875 168.491 164.882 168.64 164.897 168.796C164.911 168.945 164.928 169.083 164.95 169.21H164.153C164.125 169.097 164.107 168.973 164.1 168.838C164.1 168.697 164.1 168.573 164.1 168.467H164.079C163.916 168.722 163.697 168.93 163.421 169.093C163.152 169.256 162.826 169.337 162.444 169.337C162.189 169.337 161.948 169.306 161.722 169.242C161.502 169.178 161.308 169.086 161.138 168.966C160.975 168.838 160.844 168.683 160.745 168.499C160.646 168.314 160.596 168.102 160.596 167.861C160.596 167.451 160.702 167.129 160.915 166.895C161.127 166.662 161.389 166.488 161.7 166.375C162.019 166.262 162.359 166.191 162.72 166.163C163.088 166.134 163.424 166.12 163.729 166.12H164.047V165.971C164.047 165.61 163.937 165.338 163.718 165.154C163.506 164.97 163.205 164.878 162.815 164.878C162.546 164.878 162.281 164.924 162.019 165.016C161.764 165.101 161.538 165.235 161.339 165.419L160.819 164.878ZM163.219 166.821C162.688 166.821 162.267 166.895 161.955 167.044C161.644 167.193 161.488 167.437 161.488 167.777C161.488 168.088 161.591 168.311 161.796 168.445C162.008 168.573 162.27 168.637 162.582 168.637C162.822 168.637 163.031 168.598 163.208 168.52C163.392 168.435 163.545 168.325 163.665 168.191C163.785 168.056 163.877 167.9 163.941 167.723C164.005 167.539 164.04 167.345 164.047 167.139V166.821H163.219ZM169.207 164.941H167.741V167.426C167.741 167.589 167.745 167.741 167.752 167.883C167.759 168.017 167.787 168.138 167.837 168.244C167.887 168.343 167.961 168.424 168.06 168.488C168.159 168.545 168.301 168.573 168.485 168.573C168.605 168.573 168.729 168.559 168.856 168.53C168.984 168.502 169.104 168.46 169.217 168.403L169.249 169.157C169.108 169.221 168.948 169.267 168.771 169.295C168.602 169.323 168.439 169.337 168.283 169.337C167.986 169.337 167.749 169.298 167.572 169.221C167.395 169.143 167.257 169.033 167.157 168.891C167.058 168.75 166.991 168.576 166.956 168.371C166.927 168.159 166.913 167.925 166.913 167.67V164.941H165.83V164.241H166.913V162.828H167.741V164.241H169.207V164.941ZM173.376 161.183H174.204V164.931H174.225C174.282 164.832 174.36 164.736 174.459 164.644C174.558 164.545 174.675 164.457 174.809 164.379C174.951 164.301 175.107 164.237 175.276 164.188C175.446 164.138 175.627 164.113 175.818 164.113C176.144 164.113 176.423 164.163 176.657 164.262C176.898 164.361 177.096 164.499 177.251 164.676C177.407 164.853 177.52 165.069 177.591 165.324C177.669 165.571 177.708 165.844 177.708 166.141V169.21H176.88V166.226C176.88 165.809 176.788 165.479 176.604 165.239C176.42 164.998 176.133 164.878 175.744 164.878C175.475 164.878 175.241 164.924 175.043 165.016C174.852 165.108 174.692 165.239 174.565 165.409C174.445 165.579 174.353 165.78 174.289 166.014C174.232 166.247 174.204 166.506 174.204 166.789V169.21H173.376V161.183ZM179.312 164.878C179.567 164.616 179.868 164.425 180.214 164.304C180.568 164.177 180.926 164.113 181.287 164.113C182.023 164.113 182.554 164.287 182.88 164.634C183.205 164.98 183.368 165.508 183.368 166.216V168.35C183.368 168.491 183.375 168.64 183.389 168.796C183.403 168.945 183.421 169.083 183.442 169.21H182.646C182.618 169.097 182.6 168.973 182.593 168.838C182.593 168.697 182.593 168.573 182.593 168.467H182.572C182.409 168.722 182.189 168.93 181.913 169.093C181.644 169.256 181.319 169.337 180.936 169.337C180.682 169.337 180.441 169.306 180.214 169.242C179.995 169.178 179.8 169.086 179.63 168.966C179.468 168.838 179.337 168.683 179.237 168.499C179.138 168.314 179.089 168.102 179.089 167.861C179.089 167.451 179.195 167.129 179.407 166.895C179.62 166.662 179.882 166.488 180.193 166.375C180.512 166.262 180.851 166.191 181.212 166.163C181.581 166.134 181.917 166.12 182.221 166.12H182.54V165.971C182.54 165.61 182.43 165.338 182.211 165.154C181.998 164.97 181.697 164.878 181.308 164.878C181.039 164.878 180.774 164.924 180.512 165.016C180.257 165.101 180.03 165.235 179.832 165.419L179.312 164.878ZM181.712 166.821C181.181 166.821 180.759 166.895 180.448 167.044C180.136 167.193 179.981 167.437 179.981 167.777C179.981 168.088 180.083 168.311 180.289 168.445C180.501 168.573 180.763 168.637 181.074 168.637C181.315 168.637 181.524 168.598 181.701 168.52C181.885 168.435 182.037 168.325 182.157 168.191C182.278 168.056 182.37 167.9 182.434 167.723C182.497 167.539 182.533 167.345 182.54 167.139V166.821H181.712ZM187.243 169.21H186.33L184.302 164.241H185.268L186.818 168.138H186.839L188.315 164.241H189.207L187.243 169.21ZM194.642 168.307C194.344 168.69 194.019 168.959 193.665 169.114C193.311 169.263 192.9 169.337 192.433 169.337C192.044 169.337 191.693 169.27 191.382 169.136C191.07 168.994 190.805 168.806 190.585 168.573C190.373 168.339 190.207 168.063 190.086 167.745C189.973 167.426 189.916 167.086 189.916 166.725C189.916 166.343 189.98 165.993 190.108 165.674C190.235 165.348 190.412 165.072 190.639 164.846C190.865 164.612 191.134 164.432 191.445 164.304C191.757 164.177 192.097 164.113 192.465 164.113C192.812 164.113 193.13 164.173 193.42 164.294C193.711 164.407 193.958 164.577 194.164 164.803C194.376 165.023 194.539 165.295 194.652 165.621C194.765 165.94 194.822 166.304 194.822 166.715V166.98H190.808C190.823 167.193 190.872 167.398 190.957 167.596C191.049 167.787 191.166 167.957 191.307 168.106C191.449 168.247 191.615 168.361 191.807 168.445C191.998 168.53 192.206 168.573 192.433 168.573C192.794 168.573 193.098 168.509 193.346 168.382C193.594 168.254 193.817 168.067 194.015 167.819L194.642 168.307ZM193.93 166.279C193.916 165.855 193.778 165.515 193.516 165.26C193.254 165.005 192.893 164.878 192.433 164.878C191.973 164.878 191.601 165.005 191.318 165.26C191.035 165.515 190.865 165.855 190.808 166.279H193.93ZM198.971 166.725C198.971 166.336 199.038 165.982 199.173 165.663C199.307 165.345 199.491 165.072 199.725 164.846C199.958 164.612 200.238 164.432 200.564 164.304C200.889 164.177 201.243 164.113 201.626 164.113C202.008 164.113 202.362 164.177 202.687 164.304C203.013 164.432 203.293 164.612 203.526 164.846C203.76 165.072 203.944 165.345 204.078 165.663C204.213 165.982 204.28 166.336 204.28 166.725C204.28 167.115 204.213 167.469 204.078 167.787C203.944 168.106 203.76 168.382 203.526 168.615C203.293 168.842 203.013 169.019 202.687 169.146C202.362 169.274 202.008 169.337 201.626 169.337C201.243 169.337 200.889 169.274 200.564 169.146C200.238 169.019 199.958 168.842 199.725 168.615C199.491 168.382 199.307 168.106 199.173 167.787C199.038 167.469 198.971 167.115 198.971 166.725ZM199.863 166.725C199.863 166.987 199.902 167.231 199.98 167.458C200.065 167.677 200.185 167.872 200.341 168.042C200.496 168.205 200.68 168.336 200.893 168.435C201.112 168.527 201.357 168.573 201.626 168.573C201.895 168.573 202.135 168.527 202.348 168.435C202.567 168.336 202.755 168.205 202.91 168.042C203.066 167.872 203.183 167.677 203.261 167.458C203.346 167.231 203.388 166.987 203.388 166.725C203.388 166.463 203.346 166.223 203.261 166.003C203.183 165.777 203.066 165.582 202.91 165.419C202.755 165.249 202.567 165.118 202.348 165.026C202.135 164.927 201.895 164.878 201.626 164.878C201.357 164.878 201.112 164.927 200.893 165.026C200.68 165.118 200.496 165.249 200.341 165.419C200.185 165.582 200.065 165.777 199.98 166.003C199.902 166.223 199.863 166.463 199.863 166.725ZM205.619 164.241H206.447V164.963H206.469C206.695 164.694 206.957 164.485 207.254 164.336C207.559 164.188 207.892 164.113 208.253 164.113C208.642 164.113 208.996 164.18 209.314 164.315C209.64 164.442 209.916 164.623 210.143 164.857C210.369 165.09 210.546 165.366 210.674 165.685C210.801 166.003 210.865 166.35 210.865 166.725C210.865 167.1 210.801 167.447 210.674 167.766C210.546 168.084 210.369 168.361 210.143 168.594C209.923 168.828 209.661 169.012 209.357 169.146C209.052 169.274 208.727 169.337 208.38 169.337C207.934 169.337 207.541 169.242 207.201 169.051C206.869 168.852 206.624 168.612 206.469 168.329H206.447V171.631H205.619V164.241ZM206.447 166.725C206.447 166.987 206.486 167.231 206.564 167.458C206.649 167.677 206.77 167.872 206.925 168.042C207.081 168.205 207.265 168.336 207.477 168.435C207.697 168.527 207.941 168.573 208.21 168.573C208.479 168.573 208.72 168.527 208.932 168.435C209.152 168.336 209.339 168.205 209.495 168.042C209.651 167.872 209.767 167.677 209.845 167.458C209.93 167.231 209.973 166.987 209.973 166.725C209.973 166.463 209.93 166.223 209.845 166.003C209.767 165.777 209.651 165.582 209.495 165.419C209.339 165.249 209.152 165.118 208.932 165.026C208.72 164.927 208.479 164.878 208.21 164.878C207.941 164.878 207.697 164.927 207.477 165.026C207.265 165.118 207.081 165.249 206.925 165.419C206.77 165.582 206.649 165.777 206.564 166.003C206.486 166.223 206.447 166.463 206.447 166.725ZM216.691 168.307C216.394 168.69 216.068 168.959 215.714 169.114C215.36 169.263 214.949 169.337 214.482 169.337C214.093 169.337 213.743 169.27 213.431 169.136C213.12 168.994 212.854 168.806 212.635 168.573C212.422 168.339 212.256 168.063 212.136 167.745C212.022 167.426 211.966 167.086 211.966 166.725C211.966 166.343 212.029 165.993 212.157 165.674C212.284 165.348 212.461 165.072 212.688 164.846C212.914 164.612 213.183 164.432 213.495 164.304C213.806 164.177 214.146 164.113 214.514 164.113C214.861 164.113 215.18 164.173 215.47 164.294C215.76 164.407 216.008 164.577 216.213 164.803C216.425 165.023 216.588 165.295 216.701 165.621C216.815 165.94 216.871 166.304 216.871 166.715V166.98H212.858C212.872 167.193 212.921 167.398 213.006 167.596C213.098 167.787 213.215 167.957 213.357 168.106C213.498 168.247 213.665 168.361 213.856 168.445C214.047 168.53 214.256 168.573 214.482 168.573C214.843 168.573 215.148 168.509 215.395 168.382C215.643 168.254 215.866 168.067 216.064 167.819L216.691 168.307ZM215.979 166.279C215.965 165.855 215.827 165.515 215.565 165.26C215.303 165.005 214.942 164.878 214.482 164.878C214.022 164.878 213.651 165.005 213.367 165.26C213.084 165.515 212.914 165.855 212.858 166.279H215.979ZM218.252 165.419C218.252 165.193 218.245 164.98 218.231 164.782C218.217 164.584 218.21 164.403 218.21 164.241H218.995C218.995 164.375 218.999 164.51 219.006 164.644C219.013 164.779 219.017 164.917 219.017 165.058H219.038C219.095 164.938 219.172 164.821 219.272 164.708C219.378 164.595 219.502 164.495 219.643 164.411C219.785 164.319 219.944 164.248 220.121 164.198C220.298 164.142 220.489 164.113 220.694 164.113C221.02 164.113 221.3 164.163 221.533 164.262C221.774 164.361 221.972 164.499 222.128 164.676C222.284 164.853 222.397 165.069 222.468 165.324C222.545 165.571 222.584 165.844 222.584 166.141V169.21H221.756V166.226C221.756 165.809 221.664 165.479 221.48 165.239C221.296 164.998 221.009 164.878 220.62 164.878C220.351 164.878 220.117 164.924 219.919 165.016C219.728 165.108 219.569 165.239 219.441 165.409C219.321 165.579 219.229 165.78 219.165 166.014C219.109 166.247 219.08 166.506 219.08 166.789V169.21H218.252V165.419ZM227.413 167.904C227.576 168.109 227.753 168.272 227.944 168.392C228.142 168.513 228.39 168.573 228.687 168.573C228.814 168.573 228.942 168.559 229.069 168.53C229.204 168.502 229.324 168.456 229.43 168.392C229.536 168.329 229.621 168.251 229.685 168.159C229.749 168.06 229.781 167.943 229.781 167.808C229.781 167.674 229.749 167.564 229.685 167.479C229.629 167.394 229.551 167.323 229.452 167.267C229.352 167.203 229.239 167.154 229.112 167.118C228.984 167.083 228.853 167.051 228.719 167.023C228.485 166.973 228.262 166.916 228.05 166.853C227.838 166.789 227.65 166.708 227.487 166.609C227.331 166.502 227.204 166.368 227.105 166.205C227.013 166.042 226.967 165.833 226.967 165.579C226.967 165.338 227.02 165.126 227.126 164.941C227.232 164.757 227.374 164.605 227.551 164.485C227.728 164.365 227.926 164.273 228.146 164.209C228.365 164.145 228.591 164.113 228.825 164.113C229.179 164.113 229.505 164.184 229.802 164.326C230.106 164.467 230.343 164.697 230.513 165.016L229.823 165.472C229.717 165.295 229.575 165.154 229.398 165.048C229.229 164.934 229.02 164.878 228.772 164.878C228.659 164.878 228.542 164.892 228.422 164.92C228.308 164.949 228.206 164.991 228.114 165.048C228.022 165.104 227.944 165.179 227.88 165.271C227.823 165.356 227.795 165.455 227.795 165.568C227.795 165.674 227.827 165.766 227.891 165.844C227.961 165.915 228.053 165.978 228.167 166.035C228.287 166.092 228.422 166.141 228.57 166.184C228.726 166.226 228.885 166.262 229.048 166.29C229.267 166.332 229.476 166.389 229.675 166.46C229.873 166.524 230.046 166.612 230.195 166.725C230.343 166.839 230.46 166.98 230.545 167.15C230.63 167.32 230.673 167.529 230.673 167.777C230.673 168.06 230.616 168.3 230.503 168.499C230.389 168.697 230.237 168.86 230.046 168.987C229.862 169.107 229.65 169.196 229.409 169.252C229.175 169.309 228.935 169.337 228.687 169.337C228.262 169.337 227.894 169.274 227.583 169.146C227.278 169.012 227.002 168.768 226.755 168.414L227.413 167.904ZM231.885 164.241H232.713V164.963H232.734C232.961 164.694 233.223 164.485 233.52 164.336C233.824 164.188 234.157 164.113 234.518 164.113C234.907 164.113 235.261 164.18 235.58 164.315C235.906 164.442 236.182 164.623 236.408 164.857C236.635 165.09 236.812 165.366 236.939 165.685C237.066 166.003 237.13 166.35 237.13 166.725C237.13 167.1 237.066 167.447 236.939 167.766C236.812 168.084 236.635 168.361 236.408 168.594C236.189 168.828 235.927 169.012 235.622 169.146C235.318 169.274 234.992 169.337 234.645 169.337C234.2 169.337 233.807 169.242 233.467 169.051C233.134 168.852 232.89 168.612 232.734 168.329H232.713V171.631H231.885V164.241ZM232.713 166.725C232.713 166.987 232.752 167.231 232.83 167.458C232.915 167.677 233.035 167.872 233.191 168.042C233.347 168.205 233.531 168.336 233.743 168.435C233.962 168.527 234.207 168.573 234.476 168.573C234.745 168.573 234.985 168.527 235.198 168.435C235.417 168.336 235.605 168.205 235.76 168.042C235.916 167.872 236.033 167.677 236.111 167.458C236.196 167.231 236.238 166.987 236.238 166.725C236.238 166.463 236.196 166.223 236.111 166.003C236.033 165.777 235.916 165.582 235.76 165.419C235.605 165.249 235.417 165.118 235.198 165.026C234.985 164.927 234.745 164.878 234.476 164.878C234.207 164.878 233.962 164.927 233.743 165.026C233.531 165.118 233.347 165.249 233.191 165.419C233.035 165.582 232.915 165.777 232.83 166.003C232.752 166.223 232.713 166.463 232.713 166.725ZM238.231 166.725C238.231 166.336 238.299 165.982 238.433 165.663C238.568 165.345 238.752 165.072 238.985 164.846C239.219 164.612 239.498 164.432 239.824 164.304C240.15 164.177 240.504 164.113 240.886 164.113C241.268 164.113 241.622 164.177 241.948 164.304C242.273 164.432 242.553 164.612 242.786 164.846C243.02 165.072 243.204 165.345 243.339 165.663C243.473 165.982 243.54 166.336 243.54 166.725C243.54 167.115 243.473 167.469 243.339 167.787C243.204 168.106 243.02 168.382 242.786 168.615C242.553 168.842 242.273 169.019 241.948 169.146C241.622 169.274 241.268 169.337 240.886 169.337C240.504 169.337 240.15 169.274 239.824 169.146C239.498 169.019 239.219 168.842 238.985 168.615C238.752 168.382 238.568 168.106 238.433 167.787C238.299 167.469 238.231 167.115 238.231 166.725ZM239.123 166.725C239.123 166.987 239.162 167.231 239.24 167.458C239.325 167.677 239.445 167.872 239.601 168.042C239.757 168.205 239.941 168.336 240.153 168.435C240.373 168.527 240.617 168.573 240.886 168.573C241.155 168.573 241.395 168.527 241.608 168.435C241.827 168.336 242.015 168.205 242.171 168.042C242.326 167.872 242.443 167.677 242.521 167.458C242.606 167.231 242.648 166.987 242.648 166.725C242.648 166.463 242.606 166.223 242.521 166.003C242.443 165.777 242.326 165.582 242.171 165.419C242.015 165.249 241.827 165.118 241.608 165.026C241.395 164.927 241.155 164.878 240.886 164.878C240.617 164.878 240.373 164.927 240.153 165.026C239.941 165.118 239.757 165.249 239.601 165.419C239.445 165.582 239.325 165.777 239.24 166.003C239.162 166.223 239.123 166.463 239.123 166.725ZM247.64 164.941H246.175V167.426C246.175 167.589 246.179 167.741 246.186 167.883C246.193 168.017 246.221 168.138 246.271 168.244C246.32 168.343 246.394 168.424 246.494 168.488C246.593 168.545 246.734 168.573 246.918 168.573C247.039 168.573 247.162 168.559 247.29 168.53C247.417 168.502 247.538 168.46 247.651 168.403L247.683 169.157C247.541 169.221 247.382 169.267 247.205 169.295C247.035 169.323 246.872 169.337 246.717 169.337C246.419 169.337 246.182 169.298 246.005 169.221C245.828 169.143 245.69 169.033 245.591 168.891C245.492 168.75 245.425 168.576 245.389 168.371C245.361 168.159 245.347 167.925 245.347 167.67V164.941H244.264V164.241H245.347V162.828H246.175V164.241H247.64V164.941ZM248.861 167.904C249.024 168.109 249.201 168.272 249.392 168.392C249.59 168.513 249.838 168.573 250.135 168.573C250.262 168.573 250.39 168.559 250.517 168.53C250.652 168.502 250.772 168.456 250.878 168.392C250.984 168.329 251.069 168.251 251.133 168.159C251.197 168.06 251.229 167.943 251.229 167.808C251.229 167.674 251.197 167.564 251.133 167.479C251.076 167.394 250.999 167.323 250.899 167.267C250.8 167.203 250.687 167.154 250.56 167.118C250.432 167.083 250.301 167.051 250.167 167.023C249.933 166.973 249.71 166.916 249.498 166.853C249.285 166.789 249.098 166.708 248.935 166.609C248.779 166.502 248.652 166.368 248.553 166.205C248.461 166.042 248.415 165.833 248.415 165.579C248.415 165.338 248.468 165.126 248.574 164.941C248.68 164.757 248.822 164.605 248.999 164.485C249.176 164.365 249.374 164.273 249.593 164.209C249.813 164.145 250.039 164.113 250.273 164.113C250.627 164.113 250.953 164.184 251.25 164.326C251.554 164.467 251.791 164.697 251.961 165.016L251.271 165.472C251.165 165.295 251.023 165.154 250.846 165.048C250.676 164.934 250.468 164.878 250.22 164.878C250.107 164.878 249.99 164.892 249.869 164.92C249.756 164.949 249.654 164.991 249.562 165.048C249.47 165.104 249.392 165.179 249.328 165.271C249.271 165.356 249.243 165.455 249.243 165.568C249.243 165.674 249.275 165.766 249.339 165.844C249.409 165.915 249.501 165.978 249.615 166.035C249.735 166.092 249.869 166.141 250.018 166.184C250.174 166.226 250.333 166.262 250.496 166.29C250.715 166.332 250.924 166.389 251.122 166.46C251.321 166.524 251.494 166.612 251.643 166.725C251.791 166.839 251.908 166.98 251.993 167.15C252.078 167.32 252.121 167.529 252.121 167.777C252.121 168.06 252.064 168.3 251.951 168.499C251.837 168.697 251.685 168.86 251.494 168.987C251.31 169.107 251.098 169.196 250.857 169.252C250.623 169.309 250.383 169.337 250.135 169.337C249.71 169.337 249.342 169.274 249.031 169.146C248.726 169.012 248.45 168.768 248.202 168.414L248.861 167.904Z" fill="#1D1D1D"/>
<path d="M30.8188 135.791H32.3448L36.6148 145.703H34.5988L33.6748 143.435H29.3768L28.4808 145.703H26.5068L30.8188 135.791ZM33.0588 141.923L31.5328 137.891L29.9788 141.923H33.0588ZM36.5563 138.983H38.3903L40.1823 143.687H40.2103L42.0163 138.983H43.7383L41.0923 145.703H39.3003L36.5563 138.983ZM49.076 144.779H49.034C48.7914 145.161 48.4834 145.441 48.11 145.619C47.7367 145.787 47.326 145.871 46.878 145.871C46.57 145.871 46.2667 145.829 45.968 145.745C45.6787 145.661 45.4174 145.535 45.184 145.367C44.96 145.199 44.778 144.989 44.638 144.737C44.498 144.485 44.428 144.191 44.428 143.855C44.428 143.491 44.4934 143.183 44.624 142.931C44.7547 142.669 44.9274 142.455 45.142 142.287C45.366 142.109 45.6227 141.969 45.912 141.867C46.2014 141.764 46.5 141.689 46.808 141.643C47.1254 141.587 47.4427 141.554 47.76 141.545C48.0774 141.526 48.376 141.517 48.656 141.517H49.076V141.335C49.076 140.915 48.9314 140.602 48.642 140.397C48.3527 140.182 47.984 140.075 47.536 140.075C47.1814 140.075 46.85 140.14 46.542 140.271C46.234 140.392 45.968 140.56 45.744 140.775L44.862 139.893C45.2354 139.51 45.6694 139.235 46.164 139.067C46.668 138.899 47.186 138.815 47.718 138.815C48.194 138.815 48.5954 138.871 48.922 138.983C49.2487 139.085 49.5194 139.221 49.734 139.389C49.9487 139.557 50.112 139.753 50.224 139.977C50.3454 140.191 50.4294 140.411 50.476 140.635C50.532 140.859 50.5647 141.078 50.574 141.293C50.5834 141.498 50.588 141.68 50.588 141.839V145.703H49.076V144.779ZM48.978 142.693H48.628C48.3947 142.693 48.1334 142.702 47.844 142.721C47.5547 142.739 47.2794 142.786 47.018 142.861C46.766 142.926 46.5514 143.029 46.374 143.169C46.1967 143.299 46.108 143.486 46.108 143.729C46.108 143.887 46.1407 144.023 46.206 144.135C46.2807 144.237 46.374 144.326 46.486 144.401C46.598 144.475 46.724 144.531 46.864 144.569C47.004 144.597 47.144 144.611 47.284 144.611C47.8627 144.611 48.2874 144.475 48.558 144.205C48.838 143.925 48.978 143.547 48.978 143.071V142.693ZM52.5736 138.983H54.2536V145.703H52.5736V138.983ZM52.3356 136.701C52.3356 136.43 52.4336 136.197 52.6296 136.001C52.8349 135.795 53.0916 135.693 53.3996 135.693C53.7076 135.693 53.9642 135.791 54.1696 135.987C54.3842 136.173 54.4916 136.411 54.4916 136.701C54.4916 136.99 54.3842 137.233 54.1696 137.429C53.9642 137.615 53.7076 137.709 53.3996 137.709C53.0916 137.709 52.8349 137.611 52.6296 137.415C52.4336 137.209 52.3356 136.971 52.3356 136.701ZM56.3603 135.119H58.0403V145.703H56.3603V135.119ZM64.319 144.779H64.277C64.0343 145.161 63.7263 145.441 63.353 145.619C62.9797 145.787 62.569 145.871 62.121 145.871C61.813 145.871 61.5097 145.829 61.211 145.745C60.9217 145.661 60.6603 145.535 60.427 145.367C60.203 145.199 60.021 144.989 59.881 144.737C59.741 144.485 59.671 144.191 59.671 143.855C59.671 143.491 59.7363 143.183 59.867 142.931C59.9977 142.669 60.1703 142.455 60.385 142.287C60.609 142.109 60.8657 141.969 61.155 141.867C61.4443 141.764 61.743 141.689 62.051 141.643C62.3683 141.587 62.6857 141.554 63.003 141.545C63.3203 141.526 63.619 141.517 63.899 141.517H64.319V141.335C64.319 140.915 64.1743 140.602 63.885 140.397C63.5957 140.182 63.227 140.075 62.779 140.075C62.4243 140.075 62.093 140.14 61.785 140.271C61.477 140.392 61.211 140.56 60.987 140.775L60.105 139.893C60.4783 139.51 60.9123 139.235 61.407 139.067C61.911 138.899 62.429 138.815 62.961 138.815C63.437 138.815 63.8383 138.871 64.165 138.983C64.4917 139.085 64.7623 139.221 64.977 139.389C65.1917 139.557 65.355 139.753 65.467 139.977C65.5883 140.191 65.6723 140.411 65.719 140.635C65.775 140.859 65.8077 141.078 65.817 141.293C65.8263 141.498 65.831 141.68 65.831 141.839V145.703H64.319V144.779ZM64.221 142.693H63.871C63.6377 142.693 63.3763 142.702 63.087 142.721C62.7977 142.739 62.5223 142.786 62.261 142.861C62.009 142.926 61.7943 143.029 61.617 143.169C61.4397 143.299 61.351 143.486 61.351 143.729C61.351 143.887 61.3837 144.023 61.449 144.135C61.5237 144.237 61.617 144.326 61.729 144.401C61.841 144.475 61.967 144.531 62.107 144.569C62.247 144.597 62.387 144.611 62.527 144.611C63.1057 144.611 63.5303 144.475 63.801 144.205C64.081 143.925 64.221 143.547 64.221 143.071V142.693ZM67.7885 135.119H69.4685V139.837H69.5105C69.5945 139.725 69.7019 139.613 69.8325 139.501C69.9632 139.379 70.1219 139.267 70.3085 139.165C70.4952 139.062 70.7099 138.978 70.9525 138.913C71.1952 138.847 71.4752 138.815 71.7925 138.815C72.2685 138.815 72.7072 138.908 73.1085 139.095C73.5099 139.272 73.8505 139.519 74.1305 139.837C74.4199 140.154 74.6439 140.527 74.8025 140.957C74.9612 141.386 75.0405 141.848 75.0405 142.343C75.0405 142.837 74.9659 143.299 74.8165 143.729C74.6672 144.158 74.4479 144.531 74.1585 144.849C73.8692 145.166 73.5192 145.418 73.1085 145.605C72.6979 145.782 72.2359 145.871 71.7225 145.871C71.2465 145.871 70.8032 145.777 70.3925 145.591C69.9819 145.404 69.6552 145.105 69.4125 144.695H69.3845V145.703H67.7885V135.119ZM73.3605 142.343C73.3605 142.081 73.3139 141.829 73.2205 141.587C73.1365 141.344 73.0059 141.129 72.8285 140.943C72.6605 140.756 72.4552 140.607 72.2125 140.495C71.9699 140.383 71.6945 140.327 71.3865 140.327C71.0785 140.327 70.8032 140.383 70.5605 140.495C70.3179 140.607 70.1079 140.756 69.9305 140.943C69.7625 141.129 69.6319 141.344 69.5385 141.587C69.4545 141.829 69.4125 142.081 69.4125 142.343C69.4125 142.604 69.4545 142.856 69.5385 143.099C69.6319 143.341 69.7625 143.556 69.9305 143.743C70.1079 143.929 70.3179 144.079 70.5605 144.191C70.8032 144.303 71.0785 144.359 71.3865 144.359C71.6945 144.359 71.9699 144.303 72.2125 144.191C72.4552 144.079 72.6605 143.929 72.8285 143.743C73.0059 143.556 73.1365 143.341 73.2205 143.099C73.3139 142.856 73.3605 142.604 73.3605 142.343ZM76.7849 138.983H78.4649V145.703H76.7849V138.983ZM76.5469 136.701C76.5469 136.43 76.6449 136.197 76.8409 136.001C77.0462 135.795 77.3029 135.693 77.6109 135.693C77.9189 135.693 78.1755 135.791 78.3809 135.987C78.5955 136.173 78.7029 136.411 78.7029 136.701C78.7029 136.99 78.5955 137.233 78.3809 137.429C78.1755 137.615 77.9189 137.709 77.6109 137.709C77.3029 137.709 77.0462 137.611 76.8409 137.415C76.6449 137.209 76.5469 136.971 76.5469 136.701ZM80.5716 135.119H82.2516V145.703H80.5716V135.119ZM84.372 138.983H86.052V145.703H84.372V138.983ZM84.134 136.701C84.134 136.43 84.232 136.197 84.428 136.001C84.6333 135.795 84.89 135.693 85.198 135.693C85.506 135.693 85.7627 135.791 85.968 135.987C86.1827 136.173 86.29 136.411 86.29 136.701C86.29 136.99 86.1827 137.233 85.968 137.429C85.7627 137.615 85.506 137.709 85.198 137.709C84.89 137.709 84.6333 137.611 84.428 137.415C84.232 137.209 84.134 136.971 84.134 136.701ZM87.3467 140.411V138.983H88.7327V137.037H90.4127V138.983H92.2607V140.411H90.4127V143.351C90.4127 143.687 90.4734 143.953 90.5947 144.149C90.7254 144.345 90.9774 144.443 91.3507 144.443C91.5 144.443 91.6634 144.429 91.8407 144.401C92.018 144.363 92.158 144.307 92.2607 144.233V145.647C92.0834 145.731 91.864 145.787 91.6027 145.815C91.3507 145.852 91.1267 145.871 90.9307 145.871C90.4827 145.871 90.114 145.819 89.8247 145.717C89.5447 145.623 89.3207 145.479 89.1527 145.283C88.994 145.077 88.882 144.825 88.8167 144.527C88.7607 144.228 88.7327 143.883 88.7327 143.491V140.411H87.3467ZM92.8121 138.983H94.6601L96.5361 143.645H96.5641L98.2441 138.983H99.9941L96.8161 147.145C96.6948 147.462 96.5595 147.737 96.4101 147.971C96.2701 148.213 96.1021 148.414 95.9061 148.573C95.7101 148.741 95.4768 148.862 95.2061 148.937C94.9448 149.021 94.6275 149.063 94.2541 149.063C93.8155 149.063 93.3861 149.007 92.9661 148.895L93.1761 147.383C93.3068 147.429 93.4421 147.467 93.5821 147.495C93.7315 147.532 93.8808 147.551 94.0301 147.551C94.2355 147.551 94.4081 147.532 94.5481 147.495C94.6881 147.457 94.8048 147.397 94.8981 147.313C95.0008 147.238 95.0848 147.135 95.1501 147.005C95.2155 146.883 95.2855 146.734 95.3601 146.557L95.6821 145.759L92.8121 138.983Z" fill="#1D1D1D"/>
<path fill-rule="evenodd" clip-rule="evenodd" d="M29.8205 182.729H39.0979C39.8269 182.729 40.4233 183.325 40.4233 184.054V193.331C40.4233 194.06 39.8269 194.657 39.0979 194.657H29.8205C29.0915 194.657 28.4951 194.06 28.4951 193.331V184.054C28.4951 183.325 29.0915 182.729 29.8205 182.729ZM39.0979 193.331V184.054H29.8205V193.331H39.0979Z" fill="black" fill-opacity="0.38"/>
<path fill-rule="evenodd" clip-rule="evenodd" d="M29.8205 159.535H39.0979C39.8269 159.535 40.4233 160.132 40.4233 160.861V170.138C40.4233 170.867 39.8269 171.463 39.0979 171.463H29.8205C29.0915 171.463 28.4951 170.867 28.4951 170.138V160.861C28.4951 160.132 29.0915 159.535 29.8205 159.535ZM39.0979 170.138V160.86H29.8205V170.138H39.0979Z" fill="black" fill-opacity="0.38"/>
<path fill-rule="evenodd" clip-rule="evenodd" d="M30.4831 249.659H39.7605C40.4895 249.659 41.0859 250.255 41.0859 250.984V260.261C41.0859 260.99 40.4895 261.587 39.7605 261.587H30.4831C29.7541 261.587 29.1577 260.99 29.1577 260.261V250.984C29.1577 250.255 29.7541 249.659 30.4831 249.659ZM39.7605 260.261V250.984H30.4831V260.261H39.7605Z" fill="black" fill-opacity="0.38"/>
<path d="M183.383 28.4376H186.071L188.717 35.3816L191.391 28.4376H194.051V38.3496H192.371V30.1176H192.343L189.333 38.3496H188.101L185.091 30.1176H185.063V38.3496H183.383V28.4376ZM195.962 34.9896C195.962 34.4576 196.056 33.9769 196.242 33.5476C196.438 33.1089 196.7 32.7356 197.026 32.4276C197.353 32.1196 197.74 31.8816 198.188 31.7136C198.636 31.5456 199.112 31.4616 199.616 31.4616C200.12 31.4616 200.596 31.5456 201.044 31.7136C201.492 31.8816 201.88 32.1196 202.206 32.4276C202.533 32.7356 202.79 33.1089 202.976 33.5476C203.172 33.9769 203.27 34.4576 203.27 34.9896C203.27 35.5216 203.172 36.0069 202.976 36.4456C202.79 36.8749 202.533 37.2436 202.206 37.5516C201.88 37.8596 201.492 38.0976 201.044 38.2656C200.596 38.4336 200.12 38.5176 199.616 38.5176C199.112 38.5176 198.636 38.4336 198.188 38.2656C197.74 38.0976 197.353 37.8596 197.026 37.5516C196.7 37.2436 196.438 36.8749 196.242 36.4456C196.056 36.0069 195.962 35.5216 195.962 34.9896ZM197.642 34.9896C197.642 35.2509 197.684 35.5029 197.768 35.7456C197.862 35.9883 197.992 36.2029 198.16 36.3896C198.338 36.5763 198.548 36.7256 198.79 36.8376C199.033 36.9496 199.308 37.0056 199.616 37.0056C199.924 37.0056 200.2 36.9496 200.442 36.8376C200.685 36.7256 200.89 36.5763 201.058 36.3896C201.236 36.2029 201.366 35.9883 201.45 35.7456C201.544 35.5029 201.59 35.2509 201.59 34.9896C201.59 34.7283 201.544 34.4763 201.45 34.2336C201.366 33.9909 201.236 33.7763 201.058 33.5896C200.89 33.4029 200.685 33.2536 200.442 33.1416C200.2 33.0296 199.924 32.9736 199.616 32.9736C199.308 32.9736 199.033 33.0296 198.79 33.1416C198.548 33.2536 198.338 33.4029 198.16 33.5896C197.992 33.7763 197.862 33.9909 197.768 34.2336C197.684 34.4763 197.642 34.7283 197.642 34.9896ZM204.993 31.6296H206.673V32.6936H206.701C206.888 32.3016 207.154 31.9983 207.499 31.7836C207.845 31.5689 208.241 31.4616 208.689 31.4616C208.792 31.4616 208.89 31.4709 208.983 31.4896C209.086 31.5083 209.189 31.5316 209.291 31.5596V33.1836C209.151 33.1463 209.011 33.1183 208.871 33.0996C208.741 33.0716 208.61 33.0576 208.479 33.0576C208.087 33.0576 207.77 33.1323 207.527 33.2816C207.294 33.4216 207.112 33.5849 206.981 33.7716C206.86 33.9583 206.776 34.1449 206.729 34.3316C206.692 34.5183 206.673 34.6583 206.673 34.7516V38.3496H204.993V31.6296ZM211.683 35.5776C211.739 36.0816 211.935 36.4736 212.271 36.7536C212.607 37.0336 213.013 37.1736 213.489 37.1736C213.909 37.1736 214.259 37.0896 214.539 36.9216C214.828 36.7443 215.08 36.5249 215.295 36.2636L216.499 37.1736C216.107 37.6589 215.668 38.0043 215.183 38.2096C214.697 38.4149 214.189 38.5176 213.657 38.5176C213.153 38.5176 212.677 38.4336 212.229 38.2656C211.781 38.0976 211.393 37.8596 211.067 37.5516C210.74 37.2436 210.479 36.8749 210.283 36.4456C210.096 36.0069 210.003 35.5216 210.003 34.9896C210.003 34.4576 210.096 33.9769 210.283 33.5476C210.479 33.1089 210.74 32.7356 211.067 32.4276C211.393 32.1196 211.781 31.8816 212.229 31.7136C212.677 31.5456 213.153 31.4616 213.657 31.4616C214.123 31.4616 214.548 31.5456 214.931 31.7136C215.323 31.8723 215.654 32.1056 215.925 32.4136C216.205 32.7216 216.419 33.1043 216.569 33.5616C216.727 34.0096 216.807 34.5276 216.807 35.1156V35.5776H211.683ZM215.127 34.3176C215.117 33.8229 214.963 33.4356 214.665 33.1556C214.366 32.8663 213.951 32.7216 213.419 32.7216C212.915 32.7216 212.513 32.8663 212.215 33.1556C211.925 33.4449 211.748 33.8323 211.683 34.3176H215.127ZM222.974 28.4376H229.372V30.0336H224.738V32.6376H229.106V34.2336H224.738V38.3496H222.974V28.4376ZM231.037 31.6296H232.717V38.3496H231.037V31.6296ZM230.799 29.3476C230.799 29.0769 230.897 28.8436 231.093 28.6476C231.299 28.4423 231.555 28.3396 231.863 28.3396C232.171 28.3396 232.428 28.4376 232.633 28.6336C232.848 28.8203 232.955 29.0583 232.955 29.3476C232.955 29.6369 232.848 29.8796 232.633 30.0756C232.428 30.2623 232.171 30.3556 231.863 30.3556C231.555 30.3556 231.299 30.2576 231.093 30.0616C230.897 29.8563 230.799 29.6183 230.799 29.3476ZM234.824 27.7656H236.504V38.3496H234.824V27.7656ZM237.812 33.0576V31.6296H239.198V29.6836H240.878V31.6296H242.726V33.0576H240.878V35.9976C240.878 36.3336 240.939 36.5996 241.06 36.7956C241.191 36.9916 241.443 37.0896 241.816 37.0896C241.966 37.0896 242.129 37.0756 242.306 37.0476C242.484 37.0103 242.624 36.9543 242.726 36.8796V38.2936C242.549 38.3776 242.33 38.4336 242.068 38.4616C241.816 38.4989 241.592 38.5176 241.396 38.5176C240.948 38.5176 240.58 38.4663 240.29 38.3636C240.01 38.2703 239.786 38.1256 239.618 37.9296C239.46 37.7243 239.348 37.4723 239.282 37.1736C239.226 36.8749 239.198 36.5296 239.198 36.1376V33.0576H237.812ZM245.532 35.5776C245.588 36.0816 245.784 36.4736 246.12 36.7536C246.456 37.0336 246.862 37.1736 247.338 37.1736C247.758 37.1736 248.108 37.0896 248.388 36.9216C248.677 36.7443 248.929 36.5249 249.144 36.2636L250.348 37.1736C249.956 37.6589 249.517 38.0043 249.032 38.2096C248.546 38.4149 248.038 38.5176 247.506 38.5176C247.002 38.5176 246.526 38.4336 246.078 38.2656C245.63 38.0976 245.242 37.8596 244.916 37.5516C244.589 37.2436 244.328 36.8749 244.132 36.4456C243.945 36.0069 243.852 35.5216 243.852 34.9896C243.852 34.4576 243.945 33.9769 244.132 33.5476C244.328 33.1089 244.589 32.7356 244.916 32.4276C245.242 32.1196 245.63 31.8816 246.078 31.7136C246.526 31.5456 247.002 31.4616 247.506 31.4616C247.972 31.4616 248.397 31.5456 248.78 31.7136C249.172 31.8723 249.503 32.1056 249.774 32.4136C250.054 32.7216 250.268 33.1043 250.418 33.5616C250.576 34.0096 250.656 34.5276 250.656 35.1156V35.5776H245.532ZM248.976 34.3176C248.966 33.8229 248.812 33.4356 248.514 33.1556C248.215 32.8663 247.8 32.7216 247.268 32.7216C246.764 32.7216 246.362 32.8663 246.064 33.1556C245.774 33.4449 245.597 33.8323 245.532 34.3176H248.976ZM252.377 31.6296H254.057V32.6936H254.085C254.271 32.3016 254.537 31.9983 254.883 31.7836C255.228 31.5689 255.625 31.4616 256.073 31.4616C256.175 31.4616 256.273 31.4709 256.367 31.4896C256.469 31.5083 256.572 31.5316 256.675 31.5596V33.1836C256.535 33.1463 256.395 33.1183 256.255 33.0996C256.124 33.0716 255.993 33.0576 255.863 33.0576C255.471 33.0576 255.153 33.1323 254.911 33.2816C254.677 33.4216 254.495 33.5849 254.365 33.7716C254.243 33.9583 254.159 34.1449 254.113 34.3316C254.075 34.5183 254.057 34.6583 254.057 34.7516V38.3496H252.377V31.6296ZM261.552 33.4916C261.226 33.0343 260.787 32.8056 260.236 32.8056C260.012 32.8056 259.793 32.8616 259.578 32.9736C259.364 33.0856 259.256 33.2676 259.256 33.5196C259.256 33.7249 259.345 33.8743 259.522 33.9676C259.7 34.0609 259.924 34.1403 260.194 34.2056C260.465 34.2709 260.754 34.3409 261.062 34.4156C261.38 34.4809 261.674 34.5883 261.944 34.7376C262.215 34.8776 262.439 35.0736 262.616 35.3256C262.794 35.5776 262.882 35.9229 262.882 36.3616C262.882 36.7629 262.794 37.1036 262.616 37.3836C262.448 37.6543 262.224 37.8736 261.944 38.0416C261.674 38.2096 261.366 38.3309 261.02 38.4056C260.675 38.4803 260.33 38.5176 259.984 38.5176C259.462 38.5176 258.981 38.4429 258.542 38.2936C258.104 38.1443 257.712 37.8736 257.366 37.4816L258.486 36.4316C258.701 36.6743 258.93 36.8749 259.172 37.0336C259.424 37.1829 259.728 37.2576 260.082 37.2576C260.204 37.2576 260.33 37.2436 260.46 37.2156C260.591 37.1876 260.712 37.1409 260.824 37.0756C260.936 37.0103 261.025 36.9309 261.09 36.8376C261.165 36.7349 261.202 36.6183 261.202 36.4876C261.202 36.2543 261.114 36.0816 260.936 35.9696C260.759 35.8576 260.535 35.7689 260.264 35.7036C259.994 35.6289 259.7 35.5636 259.382 35.5076C259.074 35.4423 258.785 35.3443 258.514 35.2136C258.244 35.0736 258.02 34.8823 257.842 34.6396C257.665 34.3969 257.576 34.0609 257.576 33.6316C257.576 33.2583 257.651 32.9363 257.8 32.6656C257.959 32.3856 258.164 32.1569 258.416 31.9796C258.668 31.8023 258.958 31.6716 259.284 31.5876C259.611 31.5036 259.942 31.4616 260.278 31.4616C260.726 31.4616 261.17 31.5409 261.608 31.6996C262.047 31.8489 262.402 32.1103 262.672 32.4836L261.552 33.4916Z" fill="#435CA5"/>
<path d="M32.3448 305.09C32.1466 304.824 31.9019 304.625 31.6108 304.495C31.3197 304.359 31.0162 304.291 30.7003 304.291C30.3348 304.291 29.9973 304.365 29.6876 304.514C29.3841 304.663 29.1208 304.864 28.8978 305.118C28.6749 305.366 28.5014 305.657 28.3775 305.991C28.2537 306.32 28.1917 306.663 28.1917 307.023C28.1917 307.407 28.2537 307.766 28.3775 308.1C28.5014 308.429 28.6718 308.717 28.8885 308.964C29.1115 309.206 29.3748 309.398 29.6783 309.54C29.988 309.683 30.3286 309.754 30.7003 309.754C31.1029 309.754 31.4621 309.677 31.778 309.522C32.0939 309.361 32.3695 309.132 32.6049 308.834L33.1902 309.327C32.8929 309.723 32.5337 310.014 32.1125 310.2C31.6975 310.386 31.2268 310.479 30.7003 310.479C30.2295 310.479 29.7898 310.392 29.381 310.219C28.9722 310.045 28.616 309.807 28.3125 309.503C28.0152 309.194 27.7798 308.828 27.6064 308.407C27.4392 307.986 27.3555 307.524 27.3555 307.023C27.3555 306.539 27.4361 306.087 27.5971 305.666C27.7643 305.245 27.9966 304.879 28.2939 304.57C28.5912 304.26 28.9443 304.015 29.3531 303.836C29.7619 303.656 30.2109 303.566 30.7003 303.566C31.1462 303.566 31.5736 303.647 31.9824 303.808C32.3974 303.969 32.7443 304.232 33.023 304.598L32.3448 305.09ZM34.1919 306.521C34.4149 306.292 34.6782 306.124 34.9817 306.019C35.2914 305.908 35.6042 305.852 35.9201 305.852C36.5642 305.852 37.0288 306.004 37.3137 306.307C37.5986 306.611 37.7411 307.072 37.7411 307.691V309.559C37.7411 309.683 37.7473 309.813 37.7597 309.949C37.772 310.079 37.7875 310.2 37.8061 310.312H37.1093C37.0845 310.212 37.069 310.104 37.0628 309.986C37.0628 309.862 37.0628 309.754 37.0628 309.661H37.0443C36.9018 309.884 36.7098 310.067 36.4682 310.209C36.2328 310.352 35.9479 310.423 35.6135 310.423C35.3905 310.423 35.1799 310.395 34.9817 310.339C34.7897 310.284 34.6193 310.203 34.4707 310.098C34.3282 309.986 34.2136 309.85 34.1269 309.689C34.0402 309.528 33.9968 309.342 33.9968 309.132C33.9968 308.772 34.0897 308.491 34.2756 308.286C34.4614 308.082 34.6906 307.93 34.9631 307.831C35.2418 307.732 35.5391 307.67 35.855 307.645C36.1771 307.62 36.4713 307.608 36.7377 307.608H37.0164V307.478C37.0164 307.162 36.9204 306.923 36.7284 306.762C36.5425 306.601 36.2793 306.521 35.9386 306.521C35.7033 306.521 35.471 306.561 35.2418 306.642C35.0188 306.716 34.8206 306.834 34.6472 306.995L34.1919 306.521ZM36.2917 308.221C35.8271 308.221 35.4586 308.286 35.1861 308.416C34.9135 308.546 34.7773 308.76 34.7773 309.057C34.7773 309.33 34.8671 309.525 35.0467 309.643C35.2325 309.754 35.4617 309.81 35.7342 309.81C35.9448 309.81 36.1275 309.776 36.2824 309.708C36.4434 309.633 36.5766 309.537 36.6819 309.42C36.7872 309.302 36.8677 309.166 36.9235 309.011C36.9792 308.85 37.0102 308.679 37.0164 308.5V308.221H36.2917ZM39.1651 306.995C39.1651 306.796 39.1589 306.611 39.1465 306.437C39.1341 306.264 39.1279 306.106 39.1279 305.963H39.8154C39.8154 306.081 39.8185 306.199 39.8247 306.316C39.8309 306.434 39.834 306.555 39.834 306.679H39.8526C39.9022 306.573 39.9703 306.471 40.057 306.372C40.1499 306.273 40.2583 306.186 40.3822 306.112C40.5061 306.032 40.6454 305.97 40.8003 305.926C40.9551 305.877 41.1224 305.852 41.302 305.852C41.5869 305.852 41.8316 305.895 42.036 305.982C42.2466 306.069 42.42 306.189 42.5563 306.344C42.6925 306.499 42.7916 306.688 42.8536 306.911C42.9217 307.128 42.9558 307.366 42.9558 307.626V310.312H42.2311V307.701C42.2311 307.335 42.1506 307.047 41.9895 306.837C41.8285 306.626 41.5776 306.521 41.2369 306.521C41.0016 306.521 40.7972 306.561 40.6237 306.642C40.4565 306.722 40.3171 306.837 40.2057 306.985C40.1004 307.134 40.0198 307.311 39.9641 307.515C39.9145 307.719 39.8898 307.945 39.8898 308.193V310.312H39.1651V306.995ZM47.5211 307.05C47.3663 306.865 47.199 306.731 47.0194 306.651C46.8398 306.564 46.6416 306.521 46.4248 306.521C46.1832 306.521 45.9695 306.564 45.7837 306.651C45.5979 306.731 45.4431 306.846 45.3192 306.995C45.2015 307.143 45.1117 307.317 45.0497 307.515C44.9878 307.707 44.9568 307.914 44.9568 308.137C44.9568 308.36 44.9909 308.571 45.059 308.769C45.1334 308.961 45.2325 309.132 45.3563 309.28C45.4864 309.429 45.6413 309.547 45.8209 309.633C46.0005 309.714 46.2018 309.754 46.4248 309.754C46.9017 309.754 47.2703 309.574 47.5304 309.215L48.0693 309.726C47.8587 309.968 47.6109 310.144 47.326 310.256C47.0411 310.367 46.7407 310.423 46.4248 310.423C46.0903 310.423 45.7837 310.367 45.505 310.256C45.2263 310.144 44.9878 309.986 44.7896 309.782C44.5976 309.578 44.4458 309.336 44.3343 309.057C44.229 308.779 44.1764 308.472 44.1764 308.137C44.1764 307.809 44.229 307.506 44.3343 307.227C44.4458 306.948 44.6007 306.707 44.7989 306.502C44.9971 306.298 45.2325 306.14 45.505 306.028C45.7837 305.911 46.0903 305.852 46.4248 305.852C46.7469 305.852 47.0504 305.908 47.3353 306.019C47.6264 306.131 47.8804 306.304 48.0972 306.539L47.5211 307.05ZM52.8925 309.522C52.6324 309.856 52.3475 310.092 52.0378 310.228C51.7281 310.358 51.3688 310.423 50.96 310.423C50.6194 310.423 50.3128 310.364 50.0402 310.246C49.7677 310.123 49.5354 309.958 49.3434 309.754C49.1576 309.55 49.012 309.308 48.9067 309.029C48.8076 308.751 48.7581 308.453 48.7581 308.137C48.7581 307.803 48.8138 307.496 48.9253 307.218C49.0368 306.933 49.1917 306.691 49.3899 306.493C49.5881 306.289 49.8234 306.131 50.096 306.019C50.3685 305.908 50.6658 305.852 50.9879 305.852C51.2914 305.852 51.5701 305.905 51.8241 306.01C52.078 306.109 52.2948 306.258 52.4744 306.456C52.6603 306.648 52.8027 306.886 52.9018 307.171C53.0009 307.45 53.0505 307.769 53.0505 308.128V308.36H49.5385C49.5509 308.546 49.5943 308.726 49.6686 308.899C49.7491 309.067 49.8513 309.215 49.9752 309.345C50.0991 309.469 50.2446 309.568 50.4119 309.643C50.5791 309.717 50.7618 309.754 50.96 309.754C51.2759 309.754 51.5423 309.698 51.759 309.587C51.9758 309.475 52.1709 309.311 52.3444 309.094L52.8925 309.522ZM52.27 307.747C52.2577 307.376 52.1369 307.078 51.9077 306.855C51.6785 306.632 51.3626 306.521 50.96 306.521C50.5574 306.521 50.2322 306.632 49.9845 306.855C49.7367 307.078 49.5881 307.376 49.5385 307.747H52.27ZM54.3361 303.288H55.0608V310.312H54.3361V303.288Z" fill="#757575"/>
<rect x="25" y="66.4932" width="116" height="16" rx="6" fill="#EEF0F1"/>
<rect x="47" y="91.4932" width="237" height="16" rx="6" fill="#EEF0F1"/>
<rect x="25" y="222.493" width="116" height="16" rx="6" fill="#EEF0F1"/>
<rect x="48" y="247.493" width="237" height="16" rx="6" fill="#EEF0F1"/>
<rect x="48" y="179.493" width="237" height="16" rx="6" fill="#EEF0F1"/>
<rect x="379" y="297.493" width="46" height="22" rx="2" fill="#435CA5"/>
<path d="M392.346 304.88H393.084L395.896 311.493H394.98L394.308 309.868H391.001L390.319 311.493H389.432L392.346 304.88ZM392.701 305.889H392.682L391.309 309.139H394.009L392.701 305.889ZM396.707 307.122H397.435V307.757H397.454C397.653 307.52 397.884 307.336 398.145 307.206C398.413 307.075 398.706 307.009 399.023 307.009C399.366 307.009 399.677 307.069 399.957 307.187C400.244 307.299 400.487 307.458 400.686 307.663C400.885 307.869 401.041 308.112 401.153 308.392C401.265 308.672 401.321 308.977 401.321 309.307C401.321 309.637 401.265 309.943 401.153 310.223C401.041 310.503 400.885 310.746 400.686 310.951C400.493 311.157 400.262 311.319 399.995 311.437C399.727 311.549 399.44 311.605 399.135 311.605C398.743 311.605 398.397 311.521 398.098 311.353C397.806 311.179 397.591 310.967 397.454 310.718H397.435V313.623H396.707V307.122ZM397.435 309.307C397.435 309.538 397.47 309.753 397.538 309.952C397.613 310.145 397.719 310.316 397.856 310.466C397.993 310.609 398.155 310.724 398.341 310.811C398.534 310.892 398.749 310.933 398.986 310.933C399.223 310.933 399.434 310.892 399.621 310.811C399.814 310.724 399.979 310.609 400.116 310.466C400.253 310.316 400.356 310.145 400.424 309.952C400.499 309.753 400.536 309.538 400.536 309.307C400.536 309.077 400.499 308.865 400.424 308.672C400.356 308.473 400.253 308.302 400.116 308.158C399.979 308.009 399.814 307.894 399.621 307.813C399.434 307.726 399.223 307.682 398.986 307.682C398.749 307.682 398.534 307.726 398.341 307.813C398.155 307.894 397.993 308.009 397.856 308.158C397.719 308.302 397.613 308.473 397.538 308.672C397.47 308.865 397.435 309.077 397.435 309.307ZM402.517 307.122H403.246V307.757H403.264C403.464 307.52 403.694 307.336 403.956 307.206C404.223 307.075 404.516 307.009 404.834 307.009C405.176 307.009 405.488 307.069 405.768 307.187C406.054 307.299 406.297 307.458 406.496 307.663C406.696 307.869 406.851 308.112 406.963 308.392C407.076 308.672 407.132 308.977 407.132 309.307C407.132 309.637 407.076 309.943 406.963 310.223C406.851 310.503 406.696 310.746 406.496 310.951C406.303 311.157 406.073 311.319 405.805 311.437C405.537 311.549 405.251 311.605 404.946 311.605C404.554 311.605 404.208 311.521 403.909 311.353C403.616 311.179 403.401 310.967 403.264 310.718H403.246V313.623H402.517V307.122ZM403.246 309.307C403.246 309.538 403.28 309.753 403.349 309.952C403.423 310.145 403.529 310.316 403.666 310.466C403.803 310.609 403.965 310.724 404.152 310.811C404.345 310.892 404.56 310.933 404.796 310.933C405.033 310.933 405.245 310.892 405.432 310.811C405.625 310.724 405.79 310.609 405.927 310.466C406.064 310.316 406.166 310.145 406.235 309.952C406.31 309.753 406.347 309.538 406.347 309.307C406.347 309.077 406.31 308.865 406.235 308.672C406.166 308.473 406.064 308.302 405.927 308.158C405.79 308.009 405.625 307.894 405.432 307.813C405.245 307.726 405.033 307.682 404.796 307.682C404.56 307.682 404.345 307.726 404.152 307.813C403.965 307.894 403.803 308.009 403.666 308.158C403.529 308.302 403.423 308.473 403.349 308.672C403.28 308.865 403.246 309.077 403.246 309.307ZM408.43 304.431H409.159V311.493H408.43V304.431ZM412.316 312.493C412.241 312.679 412.163 312.848 412.082 312.997C412.008 313.153 411.914 313.284 411.802 313.389C411.696 313.501 411.565 313.586 411.41 313.642C411.26 313.704 411.077 313.735 410.859 313.735C410.753 313.735 410.641 313.729 410.522 313.716C410.41 313.704 410.304 313.673 410.205 313.623L410.298 312.988C410.373 313.019 410.451 313.038 410.532 313.044C410.613 313.056 410.706 313.062 410.812 313.062C411.049 313.062 411.223 312.997 411.335 312.866C411.447 312.736 411.544 312.561 411.625 312.343L411.923 311.521L410.111 307.122H410.961L412.316 310.55H412.334L413.633 307.122H414.427L412.316 312.493Z" fill="white"/>
</svg>
